<?xml version="1.0" encoding="UTF-8"?>
<svg version="1.1" xmlns="http://www.w3.org/2000/svg" width="489" height="460">
<path d="M0 0 C1.08071777 0.32452148 2.16143555 0.64904297 3.27490234 0.98339844 C27.76171878 8.47041379 51.73393968 18.30448977 74 31 C75.32941942 31.73699298 76.65884668 32.47397184 77.98828125 33.2109375 C98.01545 44.4939165 116.54306778 58.10569307 133.4375 73.65625 C135.65684276 75.68613667 137.90672034 77.66495498 140.1875 79.625 C147.97819324 86.43393921 154.54943873 93.92257759 161 102 C161.65871094 102.79148437 162.31742187 103.58296875 162.99609375 104.3984375 C168.90579754 111.55667026 174.05830625 119.15326012 179 127 C179.38833008 127.61584961 179.77666016 128.23169922 180.17675781 128.86621094 C187.43167789 140.56949363 192.328574 153.08408341 197 166 C197.30599121 166.84481934 197.61198242 167.68963867 197.92724609 168.56005859 C209.72338108 201.54000283 211.19899791 235.81309512 196.07373047 267.96923828 C178.42848746 303.34388285 144.28393349 324.55836279 108 337 C100.42229416 339.36818205 92.74820894 341.28100172 85 343 C84.25959473 343.16580566 83.51918945 343.33161133 82.75634766 343.50244141 C15.09604285 358.28576546 -59.76478374 344.46557358 -122 316 C-122.84159668 315.62294922 -123.68319336 315.24589844 -124.55029297 314.85742188 C-157.98916038 299.84327514 -188.55027618 279.38120454 -215 254 C-215.64582031 253.38672852 -216.29164063 252.77345703 -216.95703125 252.14160156 C-227.41884603 242.16017624 -236.64302783 231.80009031 -245 220 C-245.44923828 219.37416016 -245.89847656 218.74832031 -246.36132812 218.10351562 C-270.66464468 184.02092117 -287.48939605 139.19142379 -281.1796875 96.93823242 C-275.28142587 63.7958062 -256.16553115 38.03591627 -229.1640625 18.83203125 C-215.17461549 9.15693234 -199.98741334 2.6448659 -184 -3 C-182.88939209 -3.39227783 -182.88939209 -3.39227783 -181.75634766 -3.79248047 C-124.28126125 -23.5260043 -57.08409269 -17.14840132 0 0 Z " fill="#BF211D" transform="translate(282,111)"/>
<path d="M0 0 C-0.01160156 0.90363281 -0.02320312 1.80726562 -0.03515625 2.73828125 C-0.04417969 3.91777344 -0.05320312 5.09726563 -0.0625 6.3125 C-0.07410156 7.48425781 -0.08570312 8.65601562 -0.09765625 9.86328125 C-0.14899898 13.03059195 -0.14899898 13.03059195 1 16 C1.845625 15.94199219 2.69125 15.88398438 3.5625 15.82421875 C9.96711733 15.56948965 14.75608743 15.52565654 20.12109375 19.22265625 C25.9885494 24.77295213 29.57700147 30.49212616 32.8125 37.875 C33.23700439 38.82536133 33.66150879 39.77572266 34.09887695 40.75488281 C38.16136619 50.0306611 41.5614657 59.52141357 44.90625 69.07421875 C46.98700288 75.01446335 49.2337793 80.87739061 51.54321289 86.73168945 C53.46697215 91.61161982 55.31066505 96.51595623 57.125 101.4375 C59.12253721 106.83870963 61.36024703 112.06597252 63.80859375 117.27734375 C65.08979414 120.20520169 66.10787251 123.15799124 67.125 126.1875 C70.28111267 135.2815554 74.42209775 143.9348315 78.4765625 152.65625 C78.91419922 153.60532227 79.35183594 154.55439453 79.80273438 155.53222656 C81.00491553 158.12540169 81.00491553 158.12540169 82.8203125 160.890625 C84.8302405 166.18831601 84.34697005 171.64226632 84.25 177.25 C84.23356445 179.152052 84.23356445 179.152052 84.21679688 181.0925293 C84.0724476 193.73642715 83.60179258 206.37035841 83 219 C80.157154 216.30545966 77.93573463 213.62189537 75.828125 210.32421875 C75.25030273 209.42195557 74.67248047 208.51969238 74.07714844 207.59008789 C73.17270996 206.15330688 73.17270996 206.15330688 72.25 204.6875 C71.62383789 203.69419678 70.99767578 202.70089355 70.35253906 201.67749023 C54.33815779 176.05987644 42.99980294 147.56541206 33.63305664 118.89599609 C32.74196198 116.22717961 31.72188153 113.61616772 30.6875 111 C27.60080861 103.0668267 24.80102306 95.03729985 22 87 C20.68 87 19.36 87 18 87 C17.03159732 107.45786563 16.07380939 127.91621699 15.125 148.375 C15.07276606 149.50089185 15.07276606 149.50089185 15.01947689 150.64952898 C12.48509481 204.90530865 12.48509481 204.90530865 10.625 259.1875 C10.60622047 259.86457756 10.58744095 260.54165512 10.56809235 261.23925018 C10.35928812 268.82574668 10.16849722 276.4125052 10 284 C10.72856201 284.27908203 11.45712402 284.55816406 12.20776367 284.84570312 C14.80624207 285.91990142 17.21007247 287.12183854 19.67578125 288.46875 C33.46243457 295.89509133 47.4224375 302.28883268 62 308 C62.82951172 308.32838867 63.65902344 308.65677734 64.51367188 308.99511719 C93.09365541 320.2321937 123.06563987 327.10140437 153.5324707 330.70629883 C155.51631423 330.94242862 157.49582735 331.2148011 159.47338867 331.4987793 C165.29216976 332.22832031 171.14392034 332.35790615 177 332.5625 C178.15628906 332.60568359 179.31257813 332.64886719 180.50390625 332.69335938 C183.33583854 332.79867917 186.16784747 332.90081087 189 333 C187.41852848 281.31609652 184.80816417 229.71476144 179.69943237 178.24987793 C178.81641586 169.27954429 178.08020501 160.29835356 177.375 151.3125 C177.31386017 150.5361319 177.25272034 149.75976379 177.18972778 148.95986938 C176.19962755 136.30544697 175.36261497 123.64279959 174.64599609 110.9699707 C174.57461426 109.74238037 174.50323242 108.51479004 174.4296875 107.25 C174.34050049 105.64898437 174.34050049 105.64898437 174.24951172 104.015625 C173.9973596 100.96808782 173.54537415 98.00771875 173 95 C170.1188701 97.48154181 168.90840359 100.06182294 167.43359375 103.5390625 C166.9533374 104.66401123 166.47308105 105.78895996 165.97827148 106.94799805 C165.46981689 108.16140869 164.9613623 109.37481934 164.4375 110.625 C163.90018598 111.89313975 163.36250198 113.16112279 162.82446289 114.42895508 C159.42286868 122.47346912 156.15046529 130.56574749 152.9375 138.6875 C124.15036093 211.33388103 124.15036093 211.33388103 102.05078125 222.20703125 C99.39262713 223.23485084 96.83880031 223.78163075 94 224 C92.45952164 213.64773507 92.66270162 203.21026126 92.5949707 192.76464844 C92.57332237 190.25474344 92.53914012 187.74491528 92.49243164 185.23535156 C92.42541551 181.59406246 92.39797739 177.95431878 92.37890625 174.3125 C92.35107559 173.19770264 92.32324493 172.08290527 92.29457092 170.93432617 C92.31165713 164.43920895 93.09036659 160.80500306 97.38273621 155.88748169 C100.12280269 152.68959565 101.93328597 148.9987646 103.8671875 145.27734375 C104.29458221 144.45878403 104.72197693 143.6402243 105.162323 142.79685974 C109.83477678 133.6502706 113.50799341 124.16343153 117.125 114.5625 C117.78142872 112.84266977 118.43898058 111.1232678 119.09765625 109.40429688 C120.08087741 106.83794205 121.06363028 104.27143089 122.04278564 101.70352173 C124.39505374 95.54228952 126.79863144 89.40293572 129.2421875 83.27734375 C129.55979034 82.47833145 129.87739319 81.67931915 130.20462036 80.85609436 C136.66625997 64.72930073 144.0238158 49.55753978 155 36 C155.42539062 35.41089844 155.85078125 34.82179687 156.2890625 34.21484375 C161.88454116 26.66698584 171.74857895 19.84572686 181 18 C196.21229301 16.28678383 210.30321395 18.09503541 222.9375 27.25 C224.32344114 28.46467465 225.67772435 29.71631216 227 31 C227.74507813 31.69480469 228.49015625 32.38960937 229.2578125 33.10546875 C241.13327088 45.1218224 245.78477962 61.06346826 250 77 C250.22937256 77.81388184 250.45874512 78.62776367 250.69506836 79.46630859 C253.5828828 90.1852705 255.15170119 101.18205715 256.9375 112.125 C257.29781013 114.31002432 257.65840761 116.49500128 258.01928711 118.67993164 C259.92003674 130.22094913 261.76460416 141.76781871 263.49633789 153.33544922 C264.9855998 163.163775 266.68628637 172.95444637 268.375 182.75 C270.77760419 196.69457383 273.10498369 210.64814426 275.3125 224.625 C275.43542419 225.39952515 275.55834839 226.17405029 275.68499756 226.9720459 C276.89753386 234.62488862 278.05274831 242.27590304 279.04296875 249.9609375 C279.68782566 254.90505872 280.47447254 259.76624605 281.50439453 264.64355469 C284.9335308 280.94799963 287.09317125 297.46023776 289 314 C304.02748658 307.32313853 317.45077978 299.75070073 330 289 C330.89332031 288.25234375 331.78664063 287.5046875 332.70703125 286.734375 C344.09295816 276.86126355 352.03766408 265.25341525 359 252 C359.47179687 251.12214844 359.94359375 250.24429688 360.4296875 249.33984375 C363.29621079 243.58009043 365.08309583 237.62808494 366.75 231.4375 C367.06650513 230.26828003 367.06650513 230.26828003 367.3894043 229.07543945 C372.33870842 209.69861932 370.31173428 189.45643888 367 170 C376.37159408 179.37159408 376.1941845 202.9622335 376.3125 215.25 C376.16116925 247.41300231 363.93072262 274.4772505 341.8125 297.625 C317.65185659 320.93009655 286.39437019 333.81306597 254 341 C253.25959473 341.16580566 252.51918945 341.33161133 251.75634766 341.50244141 C184.09604285 356.28576546 109.23521626 342.46557358 47 314 C46.15840332 313.62294922 45.31680664 313.24589844 44.44970703 312.85742188 C11.01083962 297.84327514 -19.55027618 277.38120454 -46 252 C-46.64582031 251.38672852 -47.29164062 250.77345703 -47.95703125 250.14160156 C-58.41884603 240.16017624 -67.64302783 229.80009031 -76 218 C-76.44923828 217.37416016 -76.89847656 216.74832031 -77.36132812 216.10351562 C-84.59071811 205.96513116 -90.53278423 195.17857324 -96 184 C-96.32500488 183.34773437 -96.65000977 182.69546875 -96.98486328 182.0234375 C-98.63153528 178.51948351 -99.16608286 176.6709463 -98 173 C-97.443125 174.08796875 -96.88625 175.1759375 -96.3125 176.296875 C-91.69025692 185.23613796 -86.86584664 193.7992047 -81 202 C-80.32582031 202.94875 -79.65164062 203.8975 -78.95703125 204.875 C-73.20644412 212.75194266 -66.8770598 220.0665707 -60.42724609 227.37304688 C-58.65473191 229.39357963 -56.92452816 231.44895531 -55.1875 233.5 C-51.77926906 237.38672641 -47.9426541 240.6708139 -44 244 C-41.8848948 245.86890248 -39.77408251 247.74254821 -37.6640625 249.6171875 C-36.03590442 251.07691822 -36.03590442 251.07691822 -34 252 C-33.98018066 251.41549072 -33.96036133 250.83098145 -33.93994141 250.22875977 C-33.32771418 232.65174982 -32.32527306 215.11293712 -31.21875 197.56201172 C-31.03846903 194.62640973 -30.87080541 191.69107034 -30.71875 188.75390625 C-30.3779035 182.17696762 -29.86752051 175.66197997 -29.0625 169.125 C-27.77936346 158.58341093 -27.32109461 147.98436801 -26.75244141 137.38623047 C-26.26367657 128.32930277 -25.67763034 119.29065751 -24.9375 110.25 C-23.98057132 98.51056854 -23.41613152 86.77009397 -23 75 C-24.175625 75.99 -24.175625 75.99 -25.375 77 C-28 79 -28 79 -30 79 C-30.495 80.485 -30.495 80.485 -31 82 C-39.8682119 87.46072161 -49.92303015 89.88481257 -60 92 C-61.39605469 92.29390625 -61.39605469 92.29390625 -62.8203125 92.59375 C-67.36340484 93.17419423 -71.8620128 93.18429363 -76.4375 93.1875 C-77.35337891 93.19974609 -78.26925781 93.21199219 -79.21289062 93.22460938 C-87.15366183 93.24171082 -92.92689942 91.79532226 -100 88 C-100.71957137 72.37833764 -88.03909885 55.11351746 -78 44 C-60.34967504 24.75681227 -27.95933784 -1.82343508 0 0 Z " fill="#FEFEFE" transform="translate(113,113)"/>
<path d="M0 0 C-0.01160156 0.90363281 -0.02320312 1.80726562 -0.03515625 2.73828125 C-0.04417969 3.91777344 -0.05320312 5.09726563 -0.0625 6.3125 C-0.07410156 7.48425781 -0.08570312 8.65601562 -0.09765625 9.86328125 C-0.14899898 13.03059195 -0.14899898 13.03059195 1 16 C1.845625 15.94199219 2.69125 15.88398438 3.5625 15.82421875 C9.96711733 15.56948965 14.75608743 15.52565654 20.12109375 19.22265625 C25.9885494 24.77295213 29.57700147 30.49212616 32.8125 37.875 C33.23700439 38.82536133 33.66150879 39.77572266 34.09887695 40.75488281 C38.16136619 50.0306611 41.5614657 59.52141357 44.90625 69.07421875 C46.98700288 75.01446335 49.2337793 80.87739061 51.54321289 86.73168945 C53.46697215 91.61161982 55.31066505 96.51595623 57.125 101.4375 C59.12253721 106.83870963 61.36024703 112.06597252 63.80859375 117.27734375 C65.08979414 120.20520169 66.10787251 123.15799124 67.125 126.1875 C70.28111267 135.2815554 74.42209775 143.9348315 78.4765625 152.65625 C78.91419922 153.60532227 79.35183594 154.55439453 79.80273438 155.53222656 C81.00491553 158.12540169 81.00491553 158.12540169 82.8203125 160.890625 C84.8302405 166.18831601 84.34697005 171.64226632 84.25 177.25 C84.23356445 179.152052 84.23356445 179.152052 84.21679688 181.0925293 C84.0724476 193.73642715 83.60179258 206.37035841 83 219 C80.157154 216.30545966 77.93573463 213.62189537 75.828125 210.32421875 C75.25030273 209.42195557 74.67248047 208.51969238 74.07714844 207.59008789 C73.17270996 206.15330688 73.17270996 206.15330688 72.25 204.6875 C71.62383789 203.69419678 70.99767578 202.70089355 70.35253906 201.67749023 C54.33815779 176.05987644 42.99980294 147.56541206 33.63305664 118.89599609 C32.74196198 116.22717961 31.72188153 113.61616772 30.6875 111 C27.60080861 103.0668267 24.80102306 95.03729985 22 87 C20.68 87 19.36 87 18 87 C17.03159732 107.45786563 16.07380939 127.91621699 15.125 148.375 C15.07276606 149.50089185 15.07276606 149.50089185 15.01947689 150.64952898 C12.48509481 204.90530865 12.48509481 204.90530865 10.625 259.1875 C10.60622047 259.86457756 10.58744095 260.54165512 10.56809235 261.23925018 C10.35928812 268.82574668 10.16849722 276.4125052 10 284 C10.72856201 284.27908203 11.45712402 284.55816406 12.20776367 284.84570312 C14.80624207 285.91990142 17.21007247 287.12183854 19.67578125 288.46875 C33.46243457 295.89509133 47.4224375 302.28883268 62 308 C62.82951172 308.32838867 63.65902344 308.65677734 64.51367188 308.99511719 C93.17360496 320.26362827 123.23948815 327.14936714 153.79541016 330.73510742 C155.79807304 330.97573746 157.79596862 331.2552458 159.79296875 331.5390625 C165.5019396 332.25456016 171.25477358 332.36177903 177 332.5625 C178.15628906 332.60568359 179.31257813 332.64886719 180.50390625 332.69335938 C183.33583854 332.79867917 186.16784747 332.90081087 189 333 C189 330.03 189 327.06 189 324 C189.33 324 189.66 324 190 324 C190 327.3 190 330.6 190 334 C239.9465121 331.21954244 290.79506587 322.58619155 330 289 C330.89332031 288.25234375 331.78664063 287.5046875 332.70703125 286.734375 C344.09295816 276.86126355 352.03766408 265.25341525 359 252 C359.47179687 251.12214844 359.94359375 250.24429688 360.4296875 249.33984375 C363.29621079 243.58009043 365.08309583 237.62808494 366.75 231.4375 C367.06650513 230.26828003 367.06650513 230.26828003 367.3894043 229.07543945 C372.33870842 209.69861932 370.31173428 189.45643888 367 170 C376.37159408 179.37159408 376.1941845 202.9622335 376.3125 215.25 C376.16116925 247.41300231 363.93072262 274.4772505 341.8125 297.625 C317.65185659 320.93009655 286.39437019 333.81306597 254 341 C253.25959473 341.16580566 252.51918945 341.33161133 251.75634766 341.50244141 C184.09604285 356.28576546 109.23521626 342.46557358 47 314 C46.15840332 313.62294922 45.31680664 313.24589844 44.44970703 312.85742188 C11.01083962 297.84327514 -19.55027618 277.38120454 -46 252 C-46.64582031 251.38672852 -47.29164062 250.77345703 -47.95703125 250.14160156 C-58.41884603 240.16017624 -67.64302783 229.80009031 -76 218 C-76.44923828 217.37416016 -76.89847656 216.74832031 -77.36132812 216.10351562 C-84.59071811 205.96513116 -90.53278423 195.17857324 -96 184 C-96.32500488 183.34773437 -96.65000977 182.69546875 -96.98486328 182.0234375 C-98.63153528 178.51948351 -99.16608286 176.6709463 -98 173 C-97.443125 174.08796875 -96.88625 175.1759375 -96.3125 176.296875 C-91.69025692 185.23613796 -86.86584664 193.7992047 -81 202 C-80.32582031 202.94875 -79.65164062 203.8975 -78.95703125 204.875 C-73.20644412 212.75194266 -66.8770598 220.0665707 -60.42724609 227.37304688 C-58.65473191 229.39357963 -56.92452816 231.44895531 -55.1875 233.5 C-51.77926906 237.38672641 -47.9426541 240.6708139 -44 244 C-41.8848948 245.86890248 -39.77408251 247.74254821 -37.6640625 249.6171875 C-36.03590442 251.07691822 -36.03590442 251.07691822 -34 252 C-33.98018066 251.41549072 -33.96036133 250.83098145 -33.93994141 250.22875977 C-33.32771418 232.65174982 -32.32527306 215.11293712 -31.21875 197.56201172 C-31.03846903 194.62640973 -30.87080541 191.69107034 -30.71875 188.75390625 C-30.3779035 182.17696762 -29.86752051 175.66197997 -29.0625 169.125 C-27.77936346 158.58341093 -27.32109461 147.98436801 -26.75244141 137.38623047 C-26.26367657 128.32930277 -25.67763034 119.29065751 -24.9375 110.25 C-23.98057132 98.51056854 -23.41613152 86.77009397 -23 75 C-24.175625 75.99 -24.175625 75.99 -25.375 77 C-28 79 -28 79 -30 79 C-30.495 80.485 -30.495 80.485 -31 82 C-39.8682119 87.46072161 -49.92303015 89.88481257 -60 92 C-61.39605469 92.29390625 -61.39605469 92.29390625 -62.8203125 92.59375 C-67.36340484 93.17419423 -71.8620128 93.18429363 -76.4375 93.1875 C-77.35337891 93.19974609 -78.26925781 93.21199219 -79.21289062 93.22460938 C-87.15366183 93.24171082 -92.92689942 91.79532226 -100 88 C-100.71957137 72.37833764 -88.03909885 55.11351746 -78 44 C-60.34967504 24.75681227 -27.95933784 -1.82343508 0 0 Z " fill="#FEFDFD" transform="translate(113,113)"/>
<path d="M0 0 C8.49870731 3.30036648 16.56912265 7.17065989 24.66894531 11.34033203 C27.24688866 12.65373919 29.85631346 13.90065997 32.4609375 15.16015625 C56.34539852 27.19843687 78.31073245 42.85428569 97.9609375 60.94140625 C100.18028026 62.97129292 102.43015784 64.95011123 104.7109375 66.91015625 C112.50163074 73.71909546 119.07287623 81.20773384 125.5234375 89.28515625 C126.18214844 90.07664062 126.84085938 90.868125 127.51953125 91.68359375 C133.42923504 98.84182651 138.58174375 106.43841637 143.5234375 114.28515625 C143.91176758 114.90100586 144.30009766 115.51685547 144.70019531 116.15136719 C155.6094053 133.74957185 162.40630904 152.85905525 165.5234375 173.28515625 C165.81154297 174.98671875 165.81154297 174.98671875 166.10546875 176.72265625 C169.53997221 205.99618103 162.46503455 234.74474081 145.1484375 258.59765625 C143.63252577 260.51414569 142.0903039 262.4100963 140.5234375 264.28515625 C139.69199219 265.2803125 138.86054688 266.27546875 138.00390625 267.30078125 C124.75734016 282.65145953 106.31194279 295.62019389 87.5234375 303.28515625 C86.5334375 303.28515625 85.5434375 303.28515625 84.5234375 303.28515625 C81.99233433 292.60425991 80.39163617 281.89690881 78.90283203 271.03271484 C78.27822197 266.50931614 77.62508725 261.99039942 76.9609375 257.47265625 C76.84621094 256.66747559 76.73148437 255.86229492 76.61328125 255.03271484 C75.98462474 250.77231679 75.11497139 246.69837474 74.02563477 242.52661133 C72.92033575 237.59333459 72.41594429 232.54526923 71.7734375 227.53515625 C70.26025028 216.18770565 68.54409105 204.88749184 66.6484375 193.59765625 C66.52183746 192.84306122 66.39523743 192.08846619 66.26480103 191.31100464 C64.877359 183.06596967 63.45102203 174.82826963 61.98046875 166.59765625 C61.85448303 165.89251389 61.72849731 165.18737152 61.59869385 164.46086121 C60.84063272 160.2202885 60.84063272 160.2202885 60.081604 155.97988892 C58.22758979 145.60408531 56.5655085 135.211578 55.0234375 124.78515625 C49.48716851 81.37885454 49.48716851 81.37885454 35.5234375 40.28515625 C35.08515625 39.35832031 34.646875 38.43148437 34.1953125 37.4765625 C26.75803004 22.74502223 16.26470221 14.51237275 0.85546875 9.3203125 C-2.9030264 8.15266746 -6.63358236 7.13061188 -10.4765625 6.28515625 C-10.1465625 5.29515625 -9.8165625 4.30515625 -9.4765625 3.28515625 C-7.8265625 2.95515625 -6.1765625 2.62515625 -4.4765625 2.28515625 C-4.4765625 1.62515625 -4.4765625 0.96515625 -4.4765625 0.28515625 C-2.4765625 -0.71484375 -2.4765625 -0.71484375 0 0 Z " fill="#9C1D19" transform="translate(317.4765625,123.71484375)"/>
<path d="M0 0 C11.73873721 30.45336334 13.25532313 65.08312953 -0.01367188 95.30908203 C-4.57760933 104.9875604 -10.12932898 113.77790774 -17 122 C-17.83144531 122.99515625 -18.66289062 123.9903125 -19.51953125 125.015625 C-32.76609734 140.36630328 -51.21149471 153.33503764 -70 161 C-70.99 161 -71.98 161 -73 161 C-75.53110317 150.31910366 -77.13180133 139.61175256 -78.62060547 128.74755859 C-79.24521553 124.22415989 -79.89835025 119.70524317 -80.5625 115.1875 C-80.67722656 114.38231934 -80.79195313 113.57713867 -80.91015625 112.74755859 C-81.55222624 108.39625756 -82.42236266 104.20319435 -83.53393555 99.94946289 C-84.9366446 94.08218588 -85.37816229 87.99116712 -86 82 C-86.1340625 81.01773438 -86.268125 80.03546875 -86.40625 79.0234375 C-86.73213599 75.26410979 -86.70748666 73.00257825 -84.4921875 69.86328125 C-82.43289738 67.74342377 -80.2847024 65.87353354 -78 64 C-76.56163822 62.70929306 -75.12409707 61.41767083 -73.6875 60.125 C-71.50366865 58.22023838 -69.42313445 56.61542296 -67 55 C-67 53.68 -67 52.36 -67 51 C-65.02 50.505 -65.02 50.505 -63 50 C-63 49.34 -63 48.68 -63 48 C-60.69 48 -58.38 48 -56 48 C-55.9175 47.2575 -55.835 46.515 -55.75 45.75 C-54.84562401 42.43395471 -53.6285474 41.16468609 -51 39 C-50.01 38.67 -49.02 38.34 -48 38 C-48 36.35 -48 34.7 -48 33 C-46.35 33 -44.7 33 -43 33 C-42.67 31.68 -42.34 30.36 -42 29 C-41.01 29 -40.02 29 -39 29 C-38.67 28.34 -38.34 27.68 -38 27 C-37.34 27.33 -36.68 27.66 -36 28 C-36 27.01 -36 26.02 -36 25 C-36.99 24.67 -37.98 24.34 -39 24 C-38.34 23.67 -37.68 23.34 -37 23 C-36.01 23.33 -35.02 23.66 -34 24 C-34 22.35 -34 20.7 -34 19 C-32.865625 18.87625 -31.73125 18.7525 -30.5625 18.625 C-29.386875 18.41875 -28.21125 18.2125 -27 18 C-26.67 17.34 -26.34 16.68 -26 16 C-25.34 16 -24.68 16 -24 16 C-24 15.34 -24 14.68 -24 14 C-21 12 -21 12 -18 12 C-18 11.01 -18 10.02 -18 9 C-17.29875 9 -16.5975 9 -15.875 9 C-11.92582252 7.62637305 -10.62430667 5.19950326 -8.33203125 1.8125 C-5.78622523 -1.65158795 -3.86861395 -0.91625067 0 0 Z " fill="#731916" transform="translate(475,266)"/>
<path d="M0 0 C1.16208984 0.67095703 1.16208984 0.67095703 2.34765625 1.35546875 C16.99517043 10.47654185 24.75810847 24.65142234 29 41 C31.71504998 56.78557903 30.08973033 74.35383996 21 88 C13.6763294 97.56502789 5.13747934 104.94596503 -7 107 C-20.41470163 108.27683999 -30.93169778 105.43722008 -41.5390625 97.109375 C-54.18199996 86.27257147 -61.47274576 69.67366975 -62.875 53.16796875 C-62.91625 52.45253906 -62.9575 51.73710938 -63 51 C-63.04125 50.29488281 -63.0825 49.58976562 -63.125 48.86328125 C-63.56978049 33.37936061 -58.50376028 18.35074836 -48.0390625 6.84375 C-35.67788757 -5.11579831 -15.28931992 -9.06137676 0 0 Z " fill="#9D1D18" transform="translate(324,4)"/>
<path d="M0 0 C9.37159408 9.37159408 9.1941845 32.9622335 9.3125 45.25 C9.16116925 77.41300231 -3.06927738 104.4772505 -25.1875 127.625 C-49.34814341 150.93009655 -80.60562981 163.81306597 -113 171 C-113.74040527 171.16580566 -114.48081055 171.33161133 -115.24365234 171.50244141 C-182.90395715 186.28576546 -257.76478374 172.46557358 -320 144 C-320.84159668 143.62294922 -321.68319336 143.24589844 -322.55029297 142.85742188 C-355.98916038 127.84327514 -386.55027618 107.38120454 -413 82 C-413.64582031 81.38672852 -414.29164063 80.77345703 -414.95703125 80.14160156 C-425.41884603 70.16017624 -434.64302783 59.80009031 -443 48 C-443.67385742 47.06124023 -443.67385742 47.06124023 -444.36132812 46.10351562 C-451.59071811 35.96513116 -457.53278423 25.17857324 -463 14 C-463.32500488 13.34773438 -463.65000977 12.69546875 -463.98486328 12.0234375 C-465.63153528 8.51948351 -466.16608286 6.6709463 -465 3 C-464.443125 4.08796875 -463.88625 5.1759375 -463.3125 6.296875 C-458.69025692 15.23613796 -453.86584664 23.7992047 -448 32 C-447.32582031 32.94875 -446.65164063 33.8975 -445.95703125 34.875 C-440.20644412 42.75194266 -433.8770598 50.0665707 -427.42724609 57.37304688 C-425.65473191 59.39357963 -423.92452816 61.44895531 -422.1875 63.5 C-418.77987494 67.38603547 -414.94576165 70.67526034 -411 74 C-409.66425007 75.16389906 -408.33091033 76.33056998 -407 77.5 C-406.33226562 78.08136719 -405.66453125 78.66273438 -404.9765625 79.26171875 C-403.70952306 80.37601233 -402.45317292 81.5026511 -401.2109375 82.64453125 C-366.91101769 113.80637329 -318.77637568 136.29296961 -274.47802734 148.32617188 C-271.86147193 149.03766872 -269.25354849 149.77700338 -266.64453125 150.515625 C-237.42379515 158.61973376 -208.20867298 162.09704331 -178 163 C-178 160.03 -178 157.06 -178 154 C-177.67 154 -177.34 154 -177 154 C-177 157.3 -177 160.6 -177 164 C-127.0534879 161.21954244 -76.20493413 152.58619155 -37 119 C-35.66001953 117.87851562 -35.66001953 117.87851562 -34.29296875 116.734375 C-22.90704184 106.86126355 -14.96233592 95.25341525 -8 82 C-7.52820313 81.12214844 -7.05640625 80.24429688 -6.5703125 79.33984375 C-3.70378921 73.58009043 -1.91690417 67.62808494 -0.25 61.4375 C0.06650513 60.26828003 0.06650513 60.26828003 0.3894043 59.07543945 C5.33870842 39.69861932 3.31173428 19.45643888 0 0 Z " fill="#C5C3C2" transform="translate(480,283)"/>
<path d="M0 0 C-0.01160156 0.88042969 -0.02320312 1.76085937 -0.03515625 2.66796875 C-0.04417969 3.82941406 -0.05320312 4.99085937 -0.0625 6.1875 C-0.07410156 7.33605469 -0.08570312 8.48460938 -0.09765625 9.66796875 C-0.01192832 12.59300586 0.32150977 15.16316291 1 18 C-3.75 21 -3.75 21 -6 21 C-6 21.66 -6 22.32 -6 23 C-6.598125 23.59554687 -7.19625 24.19109375 -7.8125 24.8046875 C-23.10933016 40.1561492 -21.09108966 68.9337721 -22 89 C-22.33 89 -22.66 89 -23 89 C-23 84.38 -23 79.76 -23 75 C-24.65 76.32 -26.3 77.64 -28 79 C-28.66 79 -29.32 79 -30 79 C-30.495 80.485 -30.495 80.485 -31 82 C-39.8682119 87.46072161 -49.92303015 89.88481257 -60 92 C-61.39605469 92.29390625 -61.39605469 92.29390625 -62.8203125 92.59375 C-67.36340484 93.17419423 -71.8620128 93.18429363 -76.4375 93.1875 C-77.35337891 93.19974609 -78.26925781 93.21199219 -79.21289062 93.22460938 C-87.15366183 93.24171082 -92.92689942 91.79532226 -100 88 C-100.71957137 72.37833764 -88.03909885 55.11351746 -78 44 C-60.34967504 24.75681227 -27.95933784 -1.82343508 0 0 Z " fill="#E9779A" transform="translate(113,113)"/>
<path d="M0 0 C0.66 0 1.32 0 2 0 C2.67791101 22.39617101 0.67265089 44.68464246 -1 67 C-1.33 67 -1.66 67 -2 67 C-2.66 65.02 -3.32 63.04 -4 61 C-5.32 61.99 -6.64 62.98 -8 64 C-8 63.34 -8 62.68 -8 62 C-9.485 62.495 -9.485 62.495 -11 63 C-11.639375 63.144375 -12.27875 63.28875 -12.9375 63.4375 C-15.04606435 63.91257174 -15.04606435 63.91257174 -16.875 65.125 C-19.81810571 66.33686706 -21.92403753 65.58901409 -25 65 C-25.99 65.33 -26.98 65.66 -28 66 C-28 65.34 -28 64.68 -28 64 C-30.47266765 64.34444881 -30.47266765 64.34444881 -33 65 C-33.33 65.66 -33.66 66.32 -34 67 C-49 67 -49 67 -50.875 66.4375 C-53.28842332 65.94061873 -54.66767436 66.30030231 -57 67 C-57.66 67 -58.32 67 -59 67 C-60.33490085 67.13070904 -61.66818839 67.2783681 -63 67.4375 C-63.70125 67.51871094 -64.4025 67.59992188 -65.125 67.68359375 C-67.08402212 67.92028252 -67.08402212 67.92028252 -69 69 C-72.74322232 69.28794018 -73.75790636 69.16139576 -77 67 C-77.546875 65.125 -77.546875 65.125 -77.75 63 C-77.82734375 62.29875 -77.9046875 61.5975 -77.984375 60.875 C-78 59 -78 59 -77 57 C-77.66 57 -78.32 57 -79 57 C-82.15783647 41.23649114 -79.70809971 25.4117894 -76 10 C-75.15308594 10.95326172 -75.15308594 10.95326172 -74.2890625 11.92578125 C-71.83470349 14.14978234 -70.579133 14.64633372 -67.375 15.1875 C-63.10824742 15.94587629 -63.10824742 15.94587629 -61 17 C-42.8234775 18.61896152 -18.98685486 16.63911679 -4.29296875 4.6015625 C-3.14107115 3.45298449 -2.06144868 2.23265008 -1 1 C-0.67 0.67 -0.34 0.34 0 0 Z " fill="#DA1F37" transform="translate(88,188)"/>
<path d="M0 0 C8.06147172 8.52265431 9.88642832 19.34580933 9.65234375 30.62109375 C9.10390207 40.81391653 4.77906676 50.91777411 -2.6875 57.9375 C-11.04575277 64.08015243 -18.15163862 66.51143939 -28.5 65.46484375 C-35.78028572 64.26038472 -40.46060667 61.03880984 -45.08203125 55.328125 C-51.81394957 45.30395466 -53.62082171 34.64364155 -52.0625 22.8125 C-50.09557337 12.88728468 -45.2926339 4.64324415 -37.6875 -2.0625 C-25.22645109 -10.1323292 -11.22912116 -10.09168863 0 0 Z " fill="#91201B" transform="translate(141.6875,24.0625)"/>
<path d="M0 0 C0.09876923 4.98167305 0.10167797 9.67380402 -1 14.5625 C-1.2784375 15.83287109 -1.2784375 15.83287109 -1.5625 17.12890625 C-1.7790625 18.05509766 -1.7790625 18.05509766 -2 19 C-1.34 19.33 -0.68 19.66 0 20 C-0.49831724 23.68754757 -1.10067643 25.60490662 -4 28 C-2.68 28.66 -1.36 29.32 0 30 C-0.99 30 -1.98 30 -3 30 C-3 30.9075 -3 31.815 -3 32.75 C-3 40 -3 40 -4.0625 42 C-5.21044954 44.44895901 -4.89034986 45.50702038 -4 48 C-5.32 48.33 -6.64 48.66 -8 49 C-7.690625 49.8353125 -7.690625 49.8353125 -7.375 50.6875 C-6.88740242 53.69435172 -7.76360008 55.25244463 -9 58 C-9.2165625 59.0828125 -9.2165625 59.0828125 -9.4375 60.1875 C-10 62 -10 62 -13 64 C-13.72693904 65.97888961 -14.39816251 67.97954558 -15 70 C-15.33 70.33 -15.66 70.66 -16 71 C-15.01 71.99 -15.01 71.99 -14 73 C-14.99 73 -15.98 73 -17 73 C-16.9175 74.051875 -16.835 75.10375 -16.75 76.1875 C-17 80 -17 80 -19.0625 82.4375 C-21.26883019 85.35554961 -21.20413547 85.86107041 -20.75 89.3125 C-20.5025 90.529375 -20.255 91.74625 -20 93 C-22.85203718 90.14796282 -23.84541761 86.6446891 -25.25 82.9375 C-25.5601001 82.13256104 -25.8702002 81.32762207 -26.18969727 80.49829102 C-27.95961314 75.86736564 -29.63209211 71.21316108 -31.22729492 66.51953125 C-38.04448888 45.19121285 -38.04448888 45.19121285 -52.75 29.31640625 C-56.53169751 27.78463695 -59.312043 27.69751065 -63.375 27.8125 C-64.62023437 27.83957031 -65.86546875 27.86664063 -67.1484375 27.89453125 C-68.55996094 27.94673828 -68.55996094 27.94673828 -70 28 C-72.125 15.25 -72.125 15.25 -70 11 C-71.98 11 -73.96 11 -76 11 C-55.16351085 -0.42734957 -23.30646791 -0.75816221 0 0 Z " fill="#DA1F37" transform="translate(183,102)"/>
<path d="M0 0 C0.99 0 1.98 0 3 0 C3 0.66 3 1.32 3 2 C4.09248047 1.86658203 4.09248047 1.86658203 5.20703125 1.73046875 C8.99441153 2.09596419 10.11482224 3.57384303 12.6875 6.3125 C13.45449219 7.11300781 14.22148437 7.91351563 15.01171875 8.73828125 C18.15302612 12.31159553 19.56883333 15.51567776 21 20 C21.495 20.99 21.495 20.99 22 22 C22.07194869 24.88370333 22.09291708 27.74239664 22.0625 30.625 C22.05798828 31.42679688 22.05347656 32.22859375 22.04882812 33.0546875 C22.03703168 35.03649006 22.01909605 37.01825433 22 39 C21.34 39 20.68 39 20 39 C19.88269531 39.56460938 19.76539063 40.12921875 19.64453125 40.7109375 C18.93330086 43.236883 17.93406137 45.31712478 16.6875 47.625 C16.27886719 48.40101562 15.87023437 49.17703125 15.44921875 49.9765625 C13.80652013 52.2701417 12.47580937 52.76456618 10 54 C9.71125 54.62519531 9.4225 55.25039063 9.125 55.89453125 C6.55500305 60.70435193 -0.14584431 62.90388731 -5 65 C-8.3923538 65.86828103 -11.50983155 66.01041841 -15 66 C-16.11117188 66.05929688 -17.22234375 66.11859375 -18.3671875 66.1796875 C-27.29622815 66.51775808 -27.29622815 66.51775808 -30.3203125 64.29296875 C-34.91810337 58.01644958 -33.62264474 47.50397189 -33 40 C-31.38966123 31.39618998 -27.92184778 24.17994827 -23 17 C-22.4225 16.113125 -21.845 15.22625 -21.25 14.3125 C-15.27257378 8.16903416 -7.93042047 4.08405241 0 1 C0 0.67 0 0.34 0 0 Z " fill="#E7688A" transform="translate(297,0)"/>
<path d="M0 0 C0.57359533 18.50376049 0.57359533 18.50376049 -3 26 C-3.4125 26.94875 -3.825 27.8975 -4.25 28.875 C-8.92707432 37.22691842 -13.33301775 44.14155993 -21 50 C-21.99 50.845625 -22.98 51.69125 -24 52.5625 C-32.94513314 58.62665557 -43.26778648 61.42246118 -53.9375 62 C-54.70545898 62.04157227 -55.47341797 62.08314453 -56.26464844 62.12597656 C-61.75088185 62.27514907 -66.70593981 61.40360347 -72 60 C-72.74609375 57.89453125 -72.74609375 57.89453125 -73 55 C-71.7915849 52.63570958 -70.63910616 50.78434724 -69.0625 48.6875 C-68.61865967 48.08574951 -68.17481934 47.48399902 -67.7175293 46.86401367 C-54.03291196 28.92697111 -24.49298395 0 0 0 Z " fill="#EE9AB7" transform="translate(96,118)"/>
<path d="M0 0 C0.54269531 0.36867187 1.08539063 0.73734375 1.64453125 1.1171875 C0.62746094 1.42849609 0.62746094 1.42849609 -0.41015625 1.74609375 C-13.24855369 5.99592337 -21.2742837 12.49638571 -27.6015625 24.4765625 C-31.18788521 32.09585616 -32.6957462 39.37647726 -32.60546875 47.7421875 C-32.61320312 48.46664062 -32.6209375 49.19109375 -32.62890625 49.9375 C-32.60963013 55.25770933 -32.29831924 60.17433701 -28.35546875 64.1171875 C-25.58526225 64.31779883 -22.93661921 64.39527187 -20.16796875 64.3671875 C-19.42482422 64.37492187 -18.68167969 64.38265625 -17.91601562 64.390625 C-8.141082 64.35635705 2.09973681 60.90995517 9.57421875 54.44921875 C11.08471019 52.73915461 12.38104654 51.01638779 13.64453125 49.1171875 C14.11632812 48.41851562 14.588125 47.71984375 15.07421875 47 C16.98870214 44.04715273 18.52691675 41.470031 19.64453125 38.1171875 C20.30453125 38.1171875 20.96453125 38.1171875 21.64453125 38.1171875 C21.53066666 35.34548355 21.40392347 32.57540704 21.26953125 29.8046875 C21.23859375 29.01900391 21.20765625 28.23332031 21.17578125 27.42382812 C21.11777344 26.2878418 21.11777344 26.2878418 21.05859375 25.12890625 C21.02717285 24.43240967 20.99575195 23.73591309 20.96337891 23.01831055 C20.72334872 20.79186011 20.72334872 20.79186011 18.64453125 18.1171875 C18.41765625 17.2303125 18.19078125 16.3434375 17.95703125 15.4296875 C15.81377631 10.02052028 11.71456916 6.18722541 7.64453125 2.1171875 C5.07391814 1.46950957 5.07391814 1.46950957 2.64453125 1.1171875 C2.64453125 0.4571875 2.64453125 -0.2028125 2.64453125 -0.8828125 C17.02946359 -1.62900496 26.34460729 1.59810004 37.48046875 10.6015625 C43.12547837 15.76125455 47.04361881 22.42977868 50.64453125 29.1171875 C50.64453125 29.7771875 50.64453125 30.4371875 50.64453125 31.1171875 C49.3087935 31.99596234 47.96925677 32.86922245 46.6171875 33.72265625 C43.19038402 36.14516881 40.18910642 39.04847567 37.10546875 41.88671875 C35.06406591 43.7369426 32.98474821 45.46409429 30.83203125 47.1796875 C28.47678669 49.17217025 27.01564644 50.99004222 25.51953125 53.6796875 C22.9988572 58.02131671 19.70654164 61.43440091 16.20703125 64.9921875 C15.65708496 65.56396729 15.10713867 66.13574707 14.54052734 66.72485352 C11.09733966 70.15217161 8.42544335 71.82066896 3.64453125 73.1171875 C2.71640625 73.8184375 1.78828125 74.5196875 0.83203125 75.2421875 C-2.48661442 77.19433201 -3.02992513 77.26867945 -6.60546875 76.9921875 C-11.77740723 76.71215022 -14.88172313 78.80135708 -19.09375 81.609375 C-21.12959564 82.96660543 -23.14567036 84.07549764 -25.35546875 85.1171875 C-34.51365282 75.70460943 -36.23763972 62.18228911 -36.60546875 49.4921875 C-36.11096443 33.75531481 -30.64972911 18.91542496 -19.23046875 7.8671875 C-14.56161132 3.91966458 -6.29365993 -2.35881782 0 0 Z " fill="#D52A25" transform="translate(297.35546875,0.8828125)"/>
<path d="M0 0 C2.96687708 1.73522872 3.29335024 2.19255072 4.4375 5.625 C4.32365358 12.56963159 4.16476 18.373884 0.375 24.4375 C-0.615 24.9325 -0.615 24.9325 -1.625 25.4375 C-2.058125 26.3346875 -2.058125 26.3346875 -2.5 27.25 C-3.84030261 29.85614396 -5.42686531 31.51413215 -7.625 33.4375 C-8.285 33.4375 -8.945 33.4375 -9.625 33.4375 C-9.625 34.0975 -9.625 34.7575 -9.625 35.4375 C-19.06413967 39.46555777 -29.70202386 41.25222904 -39.625 37.4375 C-40.78274508 33.96426476 -40.625 31.07937701 -40.625 27.4375 C-40.955 26.7775 -41.285 26.1175 -41.625 25.4375 C-41.31771546 23.05604485 -40.97949149 21.78895299 -39.2578125 20.08203125 C-37.41196182 18.22293284 -36.14768992 16.27613863 -34.75 14.0625 C-26.93615992 2.18777259 -14.26004911 -5.98665125 0 0 Z " fill="#D04B45" transform="translate(131.625,19.5625)"/>
<path d="M0 0 C0.66 0 1.32 0 2 0 C2 7.59 2 15.18 2 23 C1.67 23 1.34 23 1 23 C1 20.69 1 18.38 1 16 C0.34 16 -0.32 16 -1 16 C-1.495 17.485 -1.495 17.485 -2 19 C-8.2887305 23.53373594 -15.59849205 25.03397445 -23 27 C-24.20011719 27.34546875 -25.40023437 27.6909375 -26.63671875 28.046875 C-42.17640263 32.45068785 -60.92024584 33.56858672 -75.8125 26.3125 C-76.534375 25.879375 -77.25625 25.44625 -78 25 C-78.22577402 19.5814234 -77.46670113 15.22512279 -76 10 C-75.525625 10.61875 -75.05125 11.2375 -74.5625 11.875 C-71.43752032 14.46644656 -68.95067465 14.90743823 -65.0234375 15.60546875 C-63 16 -63 16 -61 17 C-42.8234775 18.61896152 -18.98685486 16.63911679 -4.29296875 4.6015625 C-3.14107115 3.45298449 -2.06144868 2.23265008 -1 1 C-0.67 0.67 -0.34 0.34 0 0 Z " fill="#DF3255" transform="translate(88,188)"/>
<path d="M0 0 C4.39309122 4.02000492 7.77106067 8.60035763 9.08984375 14.49609375 C7.9568867 17.97049536 6.86524577 19.06278086 3.69921875 20.83203125 C0.81129783 22.67372932 -0.69753253 24.50045233 -2.72265625 27.24609375 C-6.28864085 31.85215719 -10.03335458 36.23047489 -14.91015625 39.49609375 C-15.90015625 39.49609375 -16.89015625 39.49609375 -17.91015625 39.49609375 C-17.91015625 40.15609375 -17.91015625 40.81609375 -17.91015625 41.49609375 C-19.54984375 42.36234375 -19.54984375 42.36234375 -21.22265625 43.24609375 C-24.27526607 44.97733338 -25.87303393 46.62560321 -27.91015625 49.49609375 C-29.56087021 50.52221324 -31.22985631 51.51917518 -32.91015625 52.49609375 C-35.7252826 54.6733097 -38.39238203 56.97831953 -40.91015625 59.49609375 C-48.32981535 49.12297811 -52.29985814 39.30131884 -50.47265625 26.24609375 C-50.19421875 24.88484375 -50.19421875 24.88484375 -49.91015625 23.49609375 C-49.25015625 23.82609375 -48.59015625 24.15609375 -47.91015625 24.49609375 C-47.91015625 27.79609375 -47.91015625 31.09609375 -47.91015625 34.49609375 C-34.12519531 35.91003315 -34.12519531 35.91003315 -20.91015625 32.49609375 C-19.92015625 32.49609375 -18.93015625 32.49609375 -17.91015625 32.49609375 C-17.91015625 31.83609375 -17.91015625 31.17609375 -17.91015625 30.49609375 C-16.5546875 29.3046875 -16.5546875 29.3046875 -14.72265625 27.93359375 C-8.13179969 22.35877188 -5.74022243 16.68667026 -4.91015625 8.12109375 C-4.45899673 3.66330418 -4.45899673 3.66330418 -6.09765625 -0.29296875 C-11.67596086 -4.0198533 -17.38991037 -4.39184361 -23.91015625 -3.50390625 C-26.70658705 -2.43161968 -29.21644496 -1.17678395 -31.81640625 0.3046875 C-33.91015625 1.49609375 -33.91015625 1.49609375 -36.91015625 2.49609375 C-37.97457268 4.31643327 -37.97457268 4.31643327 -38.91015625 6.49609375 C-39.86569788 8.03188071 -40.84608818 9.55241886 -41.84765625 11.05859375 C-42.35167969 11.82300781 -42.85570313 12.58742188 -43.375 13.375 C-44.76188572 15.29123142 -46.18579649 16.88497553 -47.91015625 18.49609375 C-46.78972604 10.43761495 -40.91064393 3.62273836 -34.6640625 -1.32421875 C-23.72687445 -8.68063476 -10.23037547 -8.0545901 0 0 Z " fill="#B82620" transform="translate(139.91015625,22.50390625)"/>
<path d="M0 0 C0.99 0.33 1.98 0.66 3 1 C2.68889817 13.78345712 -2.65971161 24.45276821 -11 34 C-20.44767459 42.82394462 -29.92895051 45.23448555 -42.59375 45.16796875 C-46.43501758 44.97854845 -49.42686087 44.36119586 -53 43 C-51.62100451 40.24200902 -49.62327638 39.56147404 -47 38 C-46.46375 37.46375 -45.9275 36.9275 -45.375 36.375 C-44 35 -44 35 -41 34 C-40.34 33.34 -39.68 32.68 -39 32 C-37.88066498 31.03505602 -36.7550367 30.07738901 -35.625 29.125 C-33.60600455 27.41052246 -31.72321968 25.71507908 -29.875 23.8125 C-28 22 -28 22 -25.5625 20.5625 C-22.81286977 19.02392813 -22.81286977 19.02392813 -20.3125 16.3125 C-19.549375 15.549375 -18.78625 14.78625 -18 14 C-17.34 14 -16.68 14 -16 14 C-16 13.34 -16 12.68 -16 12 C-15.01 12 -14.02 12 -13 12 C-13 11.34 -13 10.68 -13 10 C-12.34 9.608125 -11.68 9.21625 -11 8.8125 C-7.50987069 6.70388021 -4.80401417 4.13925092 -1.8671875 1.328125 C-1.25101562 0.88984375 -0.63484375 0.4515625 0 0 Z " fill="#761916" transform="translate(349,63)"/>
<path d="M0 0 C0.57359533 18.50376049 0.57359533 18.50376049 -3 26 C-3.4125 26.94875 -3.825 27.8975 -4.25 28.875 C-8.92707432 37.22691842 -13.33301775 44.14155993 -21 50 C-21.99 50.845625 -22.98 51.69125 -24 52.5625 C-32.94513314 58.62665557 -43.26778648 61.42246118 -53.9375 62 C-54.70545898 62.04157227 -55.47341797 62.08314453 -56.26464844 62.12597656 C-61.75088185 62.27514907 -66.70593981 61.40360347 -72 60 C-72.75 57.875 -72.75 57.875 -73 55 C-71.0625 51.6875 -71.0625 51.6875 -69 49 C-67.74703125 49.73089844 -67.74703125 49.73089844 -66.46875 50.4765625 C-62.53457485 52.20440969 -59.7788044 52.40109027 -55.5 52.375 C-54.2315625 52.38273437 -52.963125 52.39046875 -51.65625 52.3984375 C-47.76144085 51.97400317 -45.41270483 50.84894454 -42 49 C-39.30949609 48.41060867 -36.75628568 48.23761083 -34 48 C-34 47.34 -34 46.68 -34 46 C-32.3203125 44.7109375 -32.3203125 44.7109375 -30.125 43.375 C-29.40570313 42.92898437 -28.68640625 42.48296875 -27.9453125 42.0234375 C-26 41 -26 41 -24 41 C-24 40.34 -24 39.68 -24 39 C-22.3203125 37.921875 -22.3203125 37.921875 -20.125 36.75 C-16.96993024 34.86812653 -16.1147681 34.23412692 -14.4375 30.8125 C-13.73056429 28.05605572 -13.73056429 28.05605572 -15 26 C-14.01 25.01 -13.02 24.02 -12 23 C-12.495 21.515 -12.495 21.515 -13 20 C-12.34 20 -11.68 20 -11 20 C-11 17.36 -11 14.72 -11 12 C-10.34 12 -9.68 12 -9 12 C-9.185625 11.236875 -9.37125 10.47375 -9.5625 9.6875 C-10 7 -10 7 -9 4 C-9.66 3.67 -10.32 3.34 -11 3 C-4.5 0 -4.5 0 0 0 Z " fill="#ED8EAD" transform="translate(96,118)"/>
<path d="M0 0 C2.24973447 -0.054138 4.49984383 -0.09285491 6.75 -0.125 C8.00296875 -0.14820312 9.2559375 -0.17140625 10.546875 -0.1953125 C13.72820492 -0.01537302 15.36521896 0.31001418 18 2 C17.67 2.66 17.34 3.32 17 4 C17.60585938 4.06960937 18.21171875 4.13921875 18.8359375 4.2109375 C21.85349095 5.31120067 22.28229626 6.75767782 23.625 9.625 C27.62002464 18.3402999 28.23131509 25.49037956 28 35 C28 35.99 28 36.98 28 38 C27.5651997 39.53410672 27.08161385 41.05483441 26.5625 42.5625 C26.29566406 43.34753906 26.02882813 44.13257813 25.75390625 44.94140625 C25 47 25 47 24 49 C22.68 49 21.36 49 20 49 C19.74089844 49.73476563 19.48179687 50.46953125 19.21484375 51.2265625 C15.39450804 59.94822924 7.21955703 65.72440909 -1 70 C-4.86185251 71.44819469 -7.86829735 72.24304133 -12 72 C-12.33 72.66 -12.66 73.32 -13 74 C-26.11610364 74.58150213 -26.11610364 74.58150213 -32 71 C-33.5 69.0625 -33.5 69.0625 -34 67 C-33.625 64.75 -33.625 64.75 -33 63 C-32.34 63.66 -31.68 64.32 -31 65 C-28.2297935 65.20061133 -25.58115046 65.27808437 -22.8125 65.25 C-22.06935547 65.25773437 -21.32621094 65.26546875 -20.56054688 65.2734375 C-10.78561325 65.23916955 -0.54479444 61.79276767 6.9296875 55.33203125 C8.44017894 53.62196711 9.73651529 51.89920029 11 50 C11.47179687 49.30132812 11.94359375 48.60265625 12.4296875 47.8828125 C14.34417089 44.92996523 15.8823855 42.3528435 17 39 C17.66 39 18.32 39 19 39 C18.88613541 36.22829605 18.75939222 33.45821954 18.625 30.6875 C18.5940625 29.90181641 18.563125 29.11613281 18.53125 28.30664062 C18.47324219 27.1706543 18.47324219 27.1706543 18.4140625 26.01171875 C18.3826416 25.31522217 18.3512207 24.61872559 18.31884766 23.90112305 C18.07881747 21.67467261 18.07881747 21.67467261 16 19 C15.773125 18.113125 15.54625 17.22625 15.3125 16.3125 C13.16924506 10.90333278 9.07003791 7.07003791 5 3 C2.42938689 2.35232207 2.42938689 2.35232207 0 2 C0 1.34 0 0.68 0 0 Z " fill="#D93E4E" transform="translate(300,0)"/>
<path d="M0 0 C5.30177909 1.62566108 8.9131184 4.95255116 12.53515625 9.02734375 C14.28744132 13.8461277 14.51254401 18.91144404 12.84375 23.8046875 C10.67821051 27.94548895 7.75125316 31.67797039 3.53515625 33.77734375 C-1.44126775 34.99513935 -6.45240388 35.50084475 -11.33984375 33.71484375 C-16.05241734 30.79304813 -18.90831404 27.97708678 -20.2890625 22.51953125 C-20.49351447 18.16697606 -19.40974589 15.38800008 -17.40234375 11.65234375 C-16.81324219 10.47414063 -16.22414063 9.2959375 -15.6171875 8.08203125 C-11.45969751 1.69866186 -7.74295336 -1.22625958 0 0 Z " fill="#EC86A9" transform="translate(286.46484375,13.22265625)"/>
<path d="M0 0 C-0.33 8.91 -0.66 17.82 -1 27 C-1.33 27 -1.66 27 -2 27 C-2 22.38 -2 17.76 -2 13 C-3.65 14.32 -5.3 15.64 -7 17 C-7.66 17 -8.32 17 -9 17 C-9.495 18.485 -9.495 18.485 -10 20 C-18.8682119 25.46072161 -28.92303015 27.88481257 -39 30 C-40.39605469 30.29390625 -40.39605469 30.29390625 -41.8203125 30.59375 C-46.36340484 31.17419423 -50.8620128 31.18429363 -55.4375 31.1875 C-56.35337891 31.19974609 -57.26925781 31.21199219 -58.21289062 31.22460938 C-66.15366183 31.24171082 -71.92689942 29.79532226 -79 26 C-79.21278058 21.53160785 -78.59138085 18.17737474 -77 14 C-76.649375 14.46019531 -76.29875 14.92039063 -75.9375 15.39453125 C-69.39091181 20.81922428 -56.11648508 20.59957619 -48 20 C-46.86175781 19.93039063 -45.72351562 19.86078125 -44.55078125 19.7890625 C-31.12677429 18.5266167 -19.49189118 13.51493303 -8.8203125 5.28515625 C-7 4 -7 4 -5 4 C-4.67 3.01 -4.34 2.02 -4 1 C-2 0 -2 0 0 0 Z " fill="#E5567D" transform="translate(92,175)"/>
<path d="M0 0 C0.99 0 1.98 0 3 0 C3 0.66 3 1.32 3 2 C4.09248047 1.86658203 4.09248047 1.86658203 5.20703125 1.73046875 C8.99441153 2.09596419 10.11482224 3.57384303 12.6875 6.3125 C13.45449219 7.11300781 14.22148437 7.91351563 15.01171875 8.73828125 C18.15302612 12.31159553 19.56883333 15.51567776 21 20 C21.495 20.99 21.495 20.99 22 22 C22.07194869 24.88370333 22.09291708 27.74239664 22.0625 30.625 C22.05798828 31.42679688 22.05347656 32.22859375 22.04882812 33.0546875 C22.03703168 35.03649006 22.01909605 37.01825433 22 39 C21.34 39 20.68 39 20 39 C19.88269531 39.56460938 19.76539063 40.12921875 19.64453125 40.7109375 C18.93330086 43.236883 17.93406137 45.31712478 16.6875 47.625 C16.27886719 48.40101562 15.87023437 49.17703125 15.44921875 49.9765625 C13.80652013 52.2701417 12.47580937 52.76456618 10 54 C9.71125 54.62519531 9.4225 55.25039063 9.125 55.89453125 C6.55500305 60.70435193 -0.14584431 62.90388731 -5 65 C-8.3923538 65.86828103 -11.50983155 66.01041841 -15 66 C-16.11117188 66.05929688 -17.22234375 66.11859375 -18.3671875 66.1796875 C-27.29783295 66.51781884 -27.29783295 66.51781884 -30.3359375 64.27734375 C-32.18670798 61.7444818 -32.56778651 60.3476293 -32.75 57.25 C-32.80671875 56.45078125 -32.8634375 55.6515625 -32.921875 54.828125 C-32.96054687 53.92320313 -32.96054687 53.92320313 -33 53 C-32.67 53.66 -32.34 54.32 -32 55 C-29.91388442 55.650539 -29.91388442 55.650539 -27.5 56.0625 C-23.09393346 56.90606654 -23.09393346 56.90606654 -22 58 C-13.64622942 58.69997254 -6.21096615 58.61636618 1 54 C1.66 53.34 2.32 52.68 3 52 C3.99 52 4.98 52 6 52 C6.103125 51.401875 6.20625 50.80375 6.3125 50.1875 C7 48 7 48 8.4375 46.578125 C12.59627067 42.37776662 13.22401026 36.6994504 13.375 31.0625 C13.18312988 23.83539197 11.71517295 17.61330113 7 12 C7 11.34 7 10.68 7 10 C6.34 10.103125 5.68 10.20625 5 10.3125 C0.58570474 9.85267758 -2.41246273 7.49258172 -6 5 C-4.60804085 2.2160817 -2.84424221 2.02101003 0 1 C0 0.67 0 0.34 0 0 Z " fill="#E14D64" transform="translate(297,0)"/>
<path d="M0 0 C-0.22760307 2.29399934 -0.48278879 4.58527637 -0.75 6.875 C-0.88921875 8.15117187 -1.0284375 9.42734375 -1.171875 10.7421875 C-2 14 -2 14 -3.828125 15.1953125 C-4.54484375 15.46085938 -5.2615625 15.72640625 -6 16 C-6.61875 16.62003906 -7.2375 17.24007812 -7.875 17.87890625 C-20.39387803 30.37477164 -38.44534735 34.70431031 -55.5 35.3125 C-62.046521 35.18413684 -73.23182164 34.76817836 -78 30 C-77.7578125 27.8359375 -77.7578125 27.8359375 -77.125 25.375 C-76.92132813 24.55773437 -76.71765625 23.74046875 -76.5078125 22.8984375 C-76.34023437 22.27195313 -76.17265625 21.64546875 -76 21 C-75.34 21.99 -74.68 22.98 -74 24 C-67.2278708 25.3781877 -60.3243194 25.14934939 -53.4375 25.125 C-52.33986328 25.12886719 -51.24222656 25.13273437 -50.11132812 25.13671875 C-44.62656998 25.13010662 -39.40440159 24.9340941 -34 24 C-33.34 24 -32.68 24 -32 24 C-32 23.34 -32 22.68 -32 22 C-31.45472656 21.78085938 -30.90945312 21.56171875 -30.34765625 21.3359375 C-25.12384901 19.13925958 -20.57024879 16.54345569 -15.9453125 13.26953125 C-14 12 -14 12 -11 11 C-10.30199696 9.68280071 -9.63940252 8.34662045 -9 7 C-7.34375 5.078125 -7.34375 5.078125 -5.5 3.25 C-4.8915625 2.63640625 -4.283125 2.0228125 -3.65625 1.390625 C-2 0 -2 0 0 0 Z " fill="#E76689" transform="translate(94,161)"/>
<path d="M0 0 C0.35582417 7.02229474 -1.79279516 14.322629 -6.4921875 19.7109375 C-7.93511741 20.88471986 -9.46723512 21.94622414 -11 23 C-11.804375 23.845625 -12.60875 24.69125 -13.4375 25.5625 C-16.45004879 28.42809519 -19.34146764 30.03523262 -23 32 C-23.99 32.66 -24.98 33.32 -26 34 C-31.66351565 35.80964405 -37.09221387 36.21482859 -43 36 C-43.33 35.34 -43.66 34.68 -44 34 C-38.02836842 21.76236064 -14.08079986 0 0 0 Z " fill="#F3BBD2" transform="translate(78,126)"/>
<path d="M0 0 C2.87436167 2.87436167 2.96762555 5.00027708 3.09765625 9.015625 C3.08605469 10.08296875 3.07445312 11.1503125 3.0625 12.25 C3.05347656 13.32765625 3.04445312 14.4053125 3.03515625 15.515625 C3.02355469 16.33546875 3.01195312 17.1553125 3 18 C2.34 16.68 1.68 15.36 1 14 C0.21625 14.66 -0.5675 15.32 -1.375 16 C-4 18 -4 18 -6 18 C-6 18.99 -6 19.98 -6 21 C-6.61875 21.226875 -7.2375 21.45375 -7.875 21.6875 C-10.23244106 22.8440732 -10.23244106 22.8440732 -10.9375 25.5 C-12 28 -12 28 -14.5 29.0625 C-15.325 29.371875 -16.15 29.68125 -17 30 C-18.13350534 32.01669827 -18.13350534 32.01669827 -19 34 C-20.485 34.495 -20.485 34.495 -22 35 C-24.42775053 37.28902193 -26.70296774 39.68611073 -28.99609375 42.109375 C-29.69863281 42.83640625 -30.40117188 43.5634375 -31.125 44.3125 C-31.78757812 45.00988281 -32.45015625 45.70726562 -33.1328125 46.42578125 C-35 48 -35 48 -38 48 C-38 48.66 -38 49.32 -38 50 C-41 51 -41 51 -43.5625 49.875 C-46.34070552 47.73791883 -46.84985828 46.23311728 -48 43 C-46.58829091 41.70291686 -45.17041804 40.41254022 -43.75 39.125 C-42.96109375 38.40570313 -42.1721875 37.68640625 -41.359375 36.9453125 C-39 35 -39 35 -36.828125 33.9296875 C-34.65396946 33.01201619 -34.65396946 33.01201619 -33 30 C-28.55555556 27 -28.55555556 27 -26 27 C-26 26.34 -26 25.68 -26 25 C-25.01 24.525625 -24.02 24.05125 -23 23.5625 C-17.23336123 20.27726337 -13.38681665 14.94589082 -9.265625 9.859375 C-7.89783999 8.19365662 -6.45487773 6.59021519 -5 5 C-4.01 5 -3.02 5 -2 5 C-1.855625 4.360625 -1.71125 3.72125 -1.5625 3.0625 C-1 1 -1 1 0 0 Z " fill="#A2201A" transform="translate(148,37)"/>
<path d="M0 0 C2 2 2 2 2.22705078 4.98095703 C2.21657715 6.22731934 2.20610352 7.47368164 2.1953125 8.7578125 C2.1924826 9.42086395 2.18965271 10.08391541 2.18673706 10.76705933 C2.17553435 12.88655583 2.15043051 15.00563104 2.125 17.125 C2.11497028 18.56119182 2.10584441 19.99739025 2.09765625 21.43359375 C2.075595 24.95586628 2.04106494 28.47789203 2 32 C-1.99998437 32.02927916 -5.99994076 32.04689219 -10 32.0625 C-11.12535156 32.07087891 -12.25070312 32.07925781 -13.41015625 32.08789062 C-19.37584397 32.10533416 -25.10287573 31.91781223 -31 31 C-31 29.68 -31 28.36 -31 27 C-26.77777778 23 -26.77777778 23 -24 23 C-22.53587878 21.51322339 -22.53587878 21.51322339 -21 19.5625 C-16.1761868 13.89098741 -10.77609557 8.21831853 -4.3203125 4.42578125 C-1.73978493 3.06305575 -1.73978493 3.06305575 0 0 Z " fill="#801B19" transform="translate(300,414)"/>
<path d="M0 0 C0.74984705 4.00091404 1.1195296 7.76749517 1.09765625 11.8359375 C1.09443359 12.89941406 1.09121094 13.96289062 1.08789062 15.05859375 C1.07951172 16.15300781 1.07113281 17.24742188 1.0625 18.375 C1.05798828 19.49261719 1.05347656 20.61023438 1.04882812 21.76171875 C1.03709244 24.50786804 1.02067363 27.25390586 1 30 C0.37351563 29.57847656 -0.25296875 29.15695313 -0.8984375 28.72265625 C-1.71570313 28.17480469 -2.53296875 27.62695312 -3.375 27.0625 C-4.18710938 26.51722656 -4.99921875 25.97195312 -5.8359375 25.41015625 C-9.8148235 22.81741645 -12.35327681 22.8941207 -17.125 22.9375 C-18.40632813 22.94652344 -19.68765625 22.95554688 -21.0078125 22.96484375 C-21.99523437 22.97644531 -22.98265625 22.98804688 -24 23 C-26.125 10.25 -26.125 10.25 -24 6 C-25.98 6 -27.96 6 -30 6 C-25.71573847 3.69081264 -21.42007322 2.85415308 -16.6875 1.875 C-15.85798828 1.69324219 -15.02847656 1.51148437 -14.17382812 1.32421875 C-9.34314776 0.31004276 -4.93419537 -0.19976499 0 0 Z " fill="#DF3156" transform="translate(137,107)"/>
<path d="M0 0 C9.34330508 1.44381446 17.17851242 7.79851835 23 15 C31 26.40017437 31 26.40017437 31 30 C29.66727046 30.87679575 28.33055962 31.74783658 26.98046875 32.59765625 C23.55184142 35.02542195 20.5484357 37.93635632 17.46484375 40.78125 C15.047798 42.95697423 12.55833338 44.99346402 10 47 C10.09539062 46.01902344 10.19078125 45.03804687 10.2890625 44.02734375 C11.32783203 32.02528364 11.64038731 19.8100995 5.90234375 8.83203125 C4.95500589 6.90864833 4.44966055 5.09068976 4 3 C2.68 2.67 1.36 2.34 0 2 C0 1.34 0 0.68 0 0 Z " fill="#C5221C" transform="translate(317,2)"/>
<path d="M0 0 C2.83578786 2.53195344 3.00353298 4.03650741 3.375 7.875 C3.08137014 13.98475987 0.60277227 17.66218226 -3.75 21.8125 C-7.48303689 24.8723663 -10.02995649 26.26158124 -15 26 C-18.13595128 24.90442728 -21.06494583 23.55072023 -24 22 C-23.63849405 14.76988097 -19.13683599 10.47423114 -14.625 5.25 C-10.37174807 1.60435549 -5.69582107 -2.13742552 0 0 Z " fill="#E97C96" transform="translate(118,20)"/>
<path d="M0 0 C0.66 0 1.32 0 2 0 C2 3.96 2 7.92 2 12 C1.01 10.515 1.01 10.515 0 9 C-0.928125 9.66 -1.85625 10.32 -2.8125 11 C-6 13 -6 13 -9 13 C-9 13.66 -9 14.32 -9 15 C-14.64278291 18.29162336 -20.65887772 19.60466088 -27 21 C-27.70624512 21.17208984 -28.41249023 21.34417969 -29.14013672 21.52148438 C-36.30941883 23.15000439 -43.29183033 23.36690599 -50.625 23.375 C-51.800625 23.39949219 -52.97625 23.42398438 -54.1875 23.44921875 C-61.35046982 23.47336359 -65.86304694 22.70506024 -72 19 C-74.81448914 18.23245168 -74.81448914 18.23245168 -77 18 C-76.67 15.36 -76.34 12.72 -76 10 C-75.2884375 10.928125 -75.2884375 10.928125 -74.5625 11.875 C-71.43752032 14.46644656 -68.95067465 14.90743823 -65.0234375 15.60546875 C-63 16 -63 16 -61 17 C-42.8234775 18.61896152 -18.98685486 16.63911679 -4.29296875 4.6015625 C-3.14107115 3.45298449 -2.06144868 2.23265008 -1 1 C-0.67 0.67 -0.34 0.34 0 0 Z " fill="#E13E63" transform="translate(88,188)"/>
<path d="M0 0 C2.24973447 -0.054138 4.49984383 -0.09285491 6.75 -0.125 C8.00296875 -0.14820312 9.2559375 -0.17140625 10.546875 -0.1953125 C13.72820492 -0.01537302 15.36521896 0.31001418 18 2 C17.67 2.66 17.34 3.32 17 4 C17.60585938 4.06960937 18.21171875 4.13921875 18.8359375 4.2109375 C21.85349095 5.31120067 22.28229626 6.75767782 23.625 9.625 C27.62002464 18.3402999 28.23131509 25.49037956 28 35 C28 35.99 28 36.98 28 38 C27.5651997 39.53410672 27.08161385 41.05483441 26.5625 42.5625 C26.29566406 43.34753906 26.02882813 44.13257813 25.75390625 44.94140625 C25 47 25 47 24 49 C22.68 49 21.36 49 20 49 C19.74089844 49.73476563 19.48179687 50.46953125 19.21484375 51.2265625 C15.39450804 59.94822924 7.21955703 65.72440909 -1 70 C-4.86185251 71.44819469 -7.86829735 72.24304133 -12 72 C-12.33 72.66 -12.66 73.32 -13 74 C-20.09629025 74.31461385 -25.68284595 74.44572039 -32 71 C-32 70.34 -32 69.68 -32 69 C-31.154375 69.0721875 -30.30875 69.144375 -29.4375 69.21875 C-27.08564284 69.41117468 -24.73266405 69.59023104 -22.37890625 69.7578125 C-20.50954674 69.89180127 -18.64047124 70.03917537 -16.77734375 70.2421875 C-10.26332732 70.71241374 -4.74062008 67.68915443 1 65 C1.68191406 64.69320312 2.36382812 64.38640625 3.06640625 64.0703125 C6.12812416 62.69123107 6.12812416 62.69123107 8 60 C8.66 60 9.32 60 10 60 C10 59.34 10 58.68 10 58 C10.721875 57.319375 11.44375 56.63875 12.1875 55.9375 C17.89814309 50.40531451 21.33164884 42.88893069 22 35 C22.11578767 22.53835228 19.33511083 13.33532413 11 4 C8.70370006 2.85185003 6.92301914 2.69230191 4.375 2.4375 C3.55773437 2.35371094 2.74046875 2.26992188 1.8984375 2.18359375 C1.27195312 2.12300781 0.64546875 2.06242188 0 2 C0 1.34 0 0.68 0 0 Z " fill="#DC373C" transform="translate(300,0)"/>
<path d="M0 0 C7.21187333 0.99474115 12.20149022 3.82986474 16.625 9.5 C20.02940746 15.28749268 20.58564291 20.94176478 19.625 27.5 C17.28795729 34.31637458 12.57560746 39.52504154 6.625 43.5 C-0.59845717 45.92674102 -7.39266318 44.68033879 -14.19921875 41.62109375 C-17.01796075 40.16870783 -18.73040411 39.26591127 -20.375 36.5 C-20.6797055 33.46870559 -20.60839401 30.53412216 -20.375 27.5 C-19.715 27.5 -19.055 27.5 -18.375 27.5 C-18.106875 28.469375 -17.83875 29.43875 -17.5625 30.4375 C-17.170625 31.448125 -16.77875 32.45875 -16.375 33.5 C-15.385 33.83 -14.395 34.16 -13.375 34.5 C-12.90320313 34.99886719 -12.43140625 35.49773438 -11.9453125 36.01171875 C-9.03672403 38.76836603 -5.22348846 38.50603211 -1.375 38.5 C1.72682631 38.15377168 4.75346354 37.7562972 7.625 36.5 C7.955 35.51 8.285 34.52 8.625 33.5 C9.285 33.5 9.945 33.5 10.625 33.5 C11.0890625 32.324375 11.0890625 32.324375 11.5625 31.125 C12.625 28.5 12.625 28.5 13.625 26.5 C14.27837047 21.39437644 14.41105642 16.92495895 11.4375 12.5625 C8.53734844 8.81532005 5.19497842 6.75805166 0.51171875 5.98828125 C-1.07189453 5.90126953 -1.07189453 5.90126953 -2.6875 5.8125 C-4.29044922 5.71388672 -4.29044922 5.71388672 -5.92578125 5.61328125 C-6.73402344 5.57589844 -7.54226563 5.53851562 -8.375 5.5 C-5.67598684 2.22846889 -4.27307465 0.6330481 0 0 Z " fill="#E9789B" transform="translate(285.375,8.5)"/>
<path d="M0 0 C2.52775351 3.79163027 2.22443035 6.80874031 2.125 11.1875 C2.11597656 11.93708984 2.10695313 12.68667969 2.09765625 13.45898438 C2.07412578 15.30612654 2.03825561 17.15310412 2 19 C1.67 19 1.34 19 1 19 C1 14.38 1 9.76 1 5 C-0.65 6.32 -2.3 7.64 -4 9 C-4.66 9 -5.32 9 -6 9 C-6.33 9.99 -6.66 10.98 -7 12 C-15.8682119 17.46072161 -25.92303015 19.88481257 -36 22 C-37.39605469 22.29390625 -37.39605469 22.29390625 -38.8203125 22.59375 C-43.36340484 23.17419423 -47.8620128 23.18429363 -52.4375 23.1875 C-53.35337891 23.19974609 -54.26925781 23.21199219 -55.21289062 23.22460938 C-63.15366183 23.24171082 -68.92689942 21.79532226 -76 18 C-76 16.02 -76 14.04 -76 12 C-74.30729167 12.74869792 -72.61458333 13.49739583 -70.921875 14.24609375 C-64.72373725 16.67747706 -58.28386422 16.18604896 -51.72827148 16.18530273 C-49.57320401 16.18748914 -47.4186489 16.20566506 -45.26367188 16.22460938 C-43.88541841 16.22754381 -42.50716252 16.22952827 -41.12890625 16.23046875 C-39.25827515 16.23663208 -39.25827515 16.23663208 -37.34985352 16.24291992 C-34.08141681 16.00590407 -31.94650948 15.36049024 -29 14 C-27.906875 13.690625 -26.81375 13.38125 -25.6875 13.0625 C-18.24181747 11.13301696 -18.24181747 11.13301696 -12 7 C-10.68 7 -9.36 7 -8 7 C-8 6.34 -8 5.68 -8 5 C-6.25 3.7109375 -6.25 3.7109375 -4 2.375 C-3.2575 1.92898437 -2.515 1.48296875 -1.75 1.0234375 C-1.1725 0.68570313 -0.595 0.34796875 0 0 Z " fill="#E44E73" transform="translate(89,183)"/>
<path d="M0 0 C3.50248741 4.9856254 3.17465642 10.12356442 2.25 15.9375 C0.42215176 23.30476603 -3.22565055 28.15635159 -9 33 C-11.28515625 34.265625 -11.28515625 34.265625 -13 35 C-13 35.66 -13 36.32 -13 37 C-18.39729578 40.45784197 -22.79501528 42.54559102 -29.25 42.859375 C-31.02804065 42.81197522 -31.02804065 42.81197522 -32 44 C-37.01762683 44.4457809 -41.44622611 44.35033491 -46 42 C-46 39.36 -46 36.72 -46 34 C-45.67 34.99 -45.34 35.98 -45 37 C-31.21503906 38.4139394 -31.21503906 38.4139394 -18 35 C-17.01 35 -16.02 35 -15 35 C-15 34.34 -15 33.68 -15 33 C-13.64453125 31.80859375 -13.64453125 31.80859375 -11.8125 30.4375 C-5.22164344 24.86267813 -2.83006618 19.19057651 -2 10.625 C-1.54884048 6.16721043 -1.54884048 6.16721043 -3.1875 2.2109375 C-8.76580461 -1.51594705 -14.47975412 -1.88793736 -21 -1 C-23.7964308 0.07228657 -26.30628871 1.3271223 -28.90625 2.80859375 C-31 4 -31 4 -34 5 C-35.06441643 6.82033952 -35.06441643 6.82033952 -36 9 C-36.95554163 10.53578696 -37.93593193 12.05632511 -38.9375 13.5625 C-39.44152344 14.32691406 -39.94554688 15.09132813 -40.46484375 15.87890625 C-41.85172947 17.79513767 -43.27564024 19.38888178 -45 21 C-43.87956979 12.9415212 -38.00048768 6.12664461 -31.75390625 1.1796875 C-22.63520029 -4.95360693 -9.41771835 -6.15034668 0 0 Z " fill="#C13D38" transform="translate(137,20)"/>
<path d="M0 0 C5.30634673 -0.3183808 8.560964 0.01044515 13 3 C18.4083966 8.2663374 22.86222758 12.76579443 23.1171875 20.6015625 C23.05317754 21.94361022 22.97174501 23.28491428 22.875 24.625 C22.82931885 25.32560547 22.7836377 26.02621094 22.73657227 26.74804688 C22.22209291 32.91897616 20.56941486 38.35923807 18 44 C17.34 44 16.68 44 16 44 C15.90332031 44.59296875 15.80664062 45.1859375 15.70703125 45.796875 C14.85339435 48.45682645 13.80338654 49.45580071 11.6875 51.25 C11.09324219 51.77078125 10.49898438 52.2915625 9.88671875 52.828125 C8 54 8 54 4 54 C4 54.66 4 55.32 4 56 C-1.46683351 57.81507516 -6.18590692 59.25840414 -12 59 C-13.11375 59.268125 -14.2275 59.53625 -15.375 59.8125 C-19.81887272 60.04235549 -21.80834536 58.95472144 -25.3984375 56.48046875 C-27 55 -27 55 -28 52.1875 C-28 51.465625 -28 50.74375 -28 50 C-27.67 50.66 -27.34 51.32 -27 52 C-24.91388442 52.650539 -24.91388442 52.650539 -22.5 53.0625 C-18.09393346 53.90606654 -18.09393346 53.90606654 -17 55 C-8.64622942 55.69997254 -1.21096615 55.61636618 6 51 C6.66 50.34 7.32 49.68 8 49 C8.99 49 9.98 49 11 49 C11.103125 48.401875 11.20625 47.80375 11.3125 47.1875 C12 45 12 45 13.4375 43.578125 C17.59627067 39.37776662 18.22401026 33.6994504 18.375 28.0625 C18.18312988 20.83539197 16.71517295 14.61330113 12 9 C12 8.34 12 7.68 12 7 C11.34 7.103125 10.68 7.20625 10 7.3125 C5.58570474 6.85267758 2.58753727 4.49258172 -1 2 C-0.67 1.34 -0.34 0.68 0 0 Z " fill="#E45671" transform="translate(292,3)"/>
<path d="M0 0 C1.32 0 2.64 0 4 0 C4.57359533 18.50376049 4.57359533 18.50376049 1 26 C0.5875 26.94875 0.175 27.8975 -0.25 28.875 C-4.92707432 37.22691842 -9.33301775 44.14155993 -17 50 C-17.99 50.845625 -18.98 51.69125 -20 52.5625 C-28.94513314 58.62665557 -39.26778648 61.42246118 -49.9375 62 C-50.70545898 62.04157227 -51.47341797 62.08314453 -52.26464844 62.12597656 C-57.75088185 62.27514907 -62.70593981 61.40360347 -68 60 C-68.33 58.35 -68.66 56.7 -69 55 C-68.01 54.505 -68.01 54.505 -67 54 C-66.43152344 54.71929687 -66.43152344 54.71929687 -65.8515625 55.453125 C-61.68479463 58.93422221 -54.54939413 58.12784572 -49.3515625 57.8671875 C-46.50033199 57.57353918 -43.77000005 57.20753908 -41 56.4609375 C-39 56 -39 56 -35 56 C-34.505 55.01 -34.505 55.01 -34 54 C-32.328125 53.25390625 -32.328125 53.25390625 -30.25 52.5625 C-26.87800063 51.37238257 -24.04380462 49.89209476 -21 48 C-20.113125 47.690625 -19.22625 47.38125 -18.3125 47.0625 C-15.47744083 45.75990525 -15.16222968 44.8225578 -14 42 C-12.5 39.75 -12.5 39.75 -11 38 C-10.34 38 -9.68 38 -9 38 C-8.896875 37.401875 -8.79375 36.80375 -8.6875 36.1875 C-8 34 -8 34 -6.62109375 32.7890625 C0.00429435 25.4771884 1.18800735 11.38693864 1 2 C0.505 1.01 0.505 1.01 0 0 Z " fill="#EB84A5" transform="translate(92,118)"/>
<path d="M0 0 C3.883836 3.14012273 5.8023937 5.28741203 6.375 10.25 C5.88072704 15.19272958 4.46171699 16.53828301 1 20 C-1.79870027 21.39935013 -3.90498792 21.25265405 -7 21 C-8.6875 19.5625 -8.6875 19.5625 -10 18 C-10.99 17.67 -11.98 17.34 -13 17 C-15.46751239 13.29873141 -15.30721156 11.37776468 -15 7 C-14.12336743 4.13102068 -13.19924543 3.16408447 -10.875 1.25 C-7.1402209 -0.373817 -4.00750372 -0.89055638 0 0 Z " fill="#F2B5CE" transform="translate(287,20)"/>
<path d="M0 0 C7.09774436 -0.60150376 7.09774436 -0.60150376 11 2 C13.48192049 5.72288073 13.73825261 8.70259268 13 13 C11.74357956 17.95216781 9.72301272 20.96866584 6.3125 24.75 C5.48363281 25.69359375 4.65476562 26.6371875 3.80078125 27.609375 C-1.14960366 31.83480815 -6.57384358 32.34529213 -12.8515625 32.1953125 C-16.97951649 31.82004396 -20.06149775 30.93850225 -23 28 C-23 26.68 -23 25.36 -23 24 C-23.66 23.67 -24.32 23.34 -25 23 C-24.01 22.67 -23.02 22.34 -22 22 C-22 22.66 -22 23.32 -22 24 C-19.67190457 24.68473395 -17.33762223 25.34853151 -15 26 C-14.154375 26.2475 -13.30875 26.495 -12.4375 26.75 C-8.93688079 27.10903787 -7.17443368 26.58721684 -4 25 C0.77391149 20.45155045 3.76035551 16.92366279 4.3125 10.1875 C4.28760029 5.69725163 2.76331284 3.45414105 0 0 Z " fill="#E36971" transform="translate(116,18)"/>
<path d="M0 0 C0.66 0 1.32 0 2 0 C2 1.98 2 3.96 2 6 C-14.58745332 14.14441243 -30.17623249 18.12609988 -48.6875 18.25 C-49.64962402 18.2593457 -50.61174805 18.26869141 -51.60302734 18.27832031 C-57.19095866 18.25339559 -62.36158062 17.72142822 -67.81347656 16.48364258 C-69.89532691 16.0231529 -71.94837503 15.70564205 -74.0625 15.4375 C-77 15 -77 15 -78 14 C-78.04092937 11.66702567 -78.04241723 9.33294775 -78 7 C-77.32453125 7.44988281 -76.6490625 7.89976562 -75.953125 8.36328125 C-60.35885979 17.00613458 -39.65915838 15.43609116 -23 11 C-20.29825872 10.08309423 -17.64957756 9.05681889 -15 8 C-13.625 7.5 -12.25 7 -10.875 6.5 C-4.44914711 4.46586712 -4.44914711 4.46586712 0 0 Z " fill="#DD2447" transform="translate(87,204)"/>
<path d="M0 0 C0.33 0 0.66 0 1 0 C3.97496006 15.6185403 1.97403935 33.52752362 -7 47 C-14.3236706 56.56502789 -22.86252066 63.94596503 -35 66 C-48.42697462 67.27800816 -58.87506018 64.41466867 -69.5234375 56.14453125 C-75.21442847 51.21652803 -79.7358686 45.80027374 -83 39 C-82.67 38.34 -82.34 37.68 -82 37 C-81.43152344 37.79664063 -80.86304688 38.59328125 -80.27734375 39.4140625 C-72.58815133 49.96584241 -64.68663955 58.15363827 -51.55078125 61.65234375 C-39.60230352 63.2808499 -29.36349387 62.19733963 -19.3125 55.4375 C-8.87170687 47.35288022 -2.55187378 35.01390077 -0.26953125 22.06640625 C0.37470217 14.73708406 0.13581326 7.34900629 0 0 Z " fill="#A29595" transform="translate(352,45)"/>
<path d="M0 0 C0.35582417 7.02229474 -1.79279516 14.322629 -6.4921875 19.7109375 C-7.93511741 20.88471986 -9.46723512 21.94622414 -11 23 C-11.804375 23.845625 -12.60875 24.69125 -13.4375 25.5625 C-16.45004879 28.42809519 -19.34146764 30.03523262 -23 32 C-23.99 32.66 -24.98 33.32 -26 34 C-31.66351565 35.80964405 -37.09221387 36.21482859 -43 36 C-43.33 35.34 -43.66 34.68 -44 34 C-42.75 31.375 -42.75 31.375 -41 29 C-39.30432302 29 -37.60757614 29.01984166 -35.9140625 29.10546875 C-30.95148681 29.28330849 -28.1395607 28.98968273 -24 26 C-23.22140625 25.71769531 -22.4428125 25.43539062 -21.640625 25.14453125 C-13.52648492 21.62760367 -8.98039913 13.95188877 -5.77734375 6.08984375 C-5.39255859 5.05537109 -5.39255859 5.05537109 -5 4 C-6.32 3.67 -7.64 3.34 -9 3 C-3.375 0 -3.375 0 0 0 Z " fill="#F0AFC8" transform="translate(78,126)"/>
<path d="M0 0 C0.33 0 0.66 0 1 0 C1.21142154 5.81409231 1.03559504 11.48103376 -1 17 C-1.97668571 18.02278298 -2.98118155 19.01917944 -4 20 C-4.59039062 20.91265625 -5.18078125 21.8253125 -5.7890625 22.765625 C-8.33724708 26.49335791 -11.19520863 29.56288192 -14.375 32.75 C-14.92671875 33.32621094 -15.4784375 33.90242188 -16.046875 34.49609375 C-19.50928231 37.98288421 -22.15891174 39.69530955 -27 41 C-27.886875 41.70125 -28.77375 42.4025 -29.6875 43.125 C-34.41840132 45.80286867 -38.68251526 45.3406218 -44 45 C-44.33 43.68 -44.66 42.36 -45 41 C-41.3427408 39.44802654 -37.71334093 38.384097 -33.875 37.375 C-22.95617128 34.02771201 -15.2410404 27.45969017 -9 18 C-8.67 17.34 -8.34 16.68 -8 16 C-7.35546875 15.72027344 -6.7109375 15.44054688 -6.046875 15.15234375 C-3.37683055 13.64916987 -3.10535681 12.45645722 -2.25 9.5625 C-2.00765625 8.78003906 -1.7653125 7.99757813 -1.515625 7.19140625 C-0.88548033 4.88849989 -0.88548033 4.88849989 -1 2 C-0.67 1.34 -0.34 0.68 0 0 Z " fill="#BA2725" transform="translate(328,33)"/>
<path d="M0 0 C1.98 0 3.96 0 6 0 C6.82080253 9.43922905 2.46868263 17.24545653 -3.03125 24.6796875 C-9.87529112 32.74587882 -19.71708916 38.30188607 -30.25 39.8125 C-40.95652174 40.34782609 -40.95652174 40.34782609 -45 39 C-43.25 34.125 -43.25 34.125 -41 33 C-40.67 33.99 -40.34 34.98 -40 36 C-31.20692987 36.58620468 -23.03954418 34.36346223 -16 29 C-15.154375 28.525625 -14.30875 28.05125 -13.4375 27.5625 C-5.60756641 22.5433118 -1.92127141 15.52260834 1 7 C1.76605458 3.59880678 1.76605458 3.59880678 2 1 C1.34 0.67 0.68 0.34 0 0 Z " fill="#EEA4BF" transform="translate(76,125)"/>
<path d="M0 0 C0.33 0 0.66 0 1 0 C1.97567047 7.41509555 -2.26374475 14.03219151 -6.625 19.75 C-11.06887421 24.55943713 -17.16577386 28.47514195 -23.7109375 29.37109375 C-26.1875 29.375 -26.1875 29.375 -30 29 C-28.81475405 25.44426216 -28.04049382 25.14479554 -24.9375 23.25 C-19.24384064 19.6027837 -13.78142221 15.67213332 -10 10 C-9.34 10 -8.68 10 -8 10 C-7.773125 9.4225 -7.54625 8.845 -7.3125 8.25 C-5.67083893 5.43572387 -3.56440947 3.97262267 -1 2 C-0.67 1.34 -0.34 0.68 0 0 Z " fill="#821E1D" transform="translate(148,60)"/>
<path d="M0 0 C9.33184525 1.44204358 17.14387101 7.82891777 23 15 C23.33 15.99 23.66 16.98 24 18 C19.15695067 21.90134529 19.15695067 21.90134529 16.8125 23.375 C14.34784556 25.58469019 13.83885296 27.85430139 13 31 C12.34 31 11.68 31 11 31 C10.90203125 30.02160156 10.8040625 29.04320313 10.703125 28.03515625 C9.92311391 21.19661077 9.13411956 15.01508911 5.90234375 8.83203125 C4.95500589 6.90864833 4.44966055 5.09068976 4 3 C2.68 2.67 1.36 2.34 0 2 C0 1.34 0 0.68 0 0 Z " fill="#D72621" transform="translate(317,2)"/>
<path d="M0 0 C6.51562017 4.95051036 6.51562017 4.95051036 8.125 8.4375 C7.94729369 12.08047941 6.5968096 14.7472397 5 18 C4.608125 18.804375 4.21625 19.60875 3.8125 20.4375 C3.544375 20.953125 3.27625 21.46875 3 22 C2.34 22 1.68 22 1 22 C1 22.66 1 23.32 1 24 C0.34 24 -0.32 24 -1 24 C-1.20625 24.680625 -1.4125 25.36125 -1.625 26.0625 C-4.26185617 31.69578363 -8.31945145 36.31751874 -14 39 C-14.66 39 -15.32 39 -16 39 C-16.33 39.66 -16.66 40.32 -17 41 C-19.04036496 41.58379541 -21.10969214 42.06800379 -23.1875 42.5 C-26.63117925 43.22415655 -29.90381612 43.96662059 -33.23046875 45.12109375 C-36.55349648 46.17565121 -38.61962344 45.66137802 -42 45 C-44.13258852 45.42602976 -44.13258852 45.42602976 -46 46 C-48.07726572 38.66847392 -47.94351599 32.53537771 -47 25 C-46.34 25.33 -45.68 25.66 -45 26 C-45.33 30.95 -45.66 35.9 -46 41 C-42.44157686 41.71168463 -39.77278368 42.13682142 -36.25 42.125 C-35.47140625 42.12757812 -34.6928125 42.13015625 -33.890625 42.1328125 C-31.98823854 42.20684449 -31.98823854 42.20684449 -31 41 C-29.62744469 40.86745711 -28.25152013 40.76915797 -26.875 40.6875 C-22.0046787 40.22144055 -19.09885268 38.59315169 -15 36 C-14.34 36 -13.68 36 -13 36 C-13 35.34 -13 34.68 -13 34 C-11.390625 32.44921875 -11.390625 32.44921875 -9.25 30.6875 C-3.62533861 26.05236237 -0.63952927 22.24475857 0.875 15 C1.14054687 13.80375 1.40609375 12.6075 1.6796875 11.375 C2.02013115 7.78788641 1.51806712 6.19126519 0 3 C0 2.01 0 1.02 0 0 Z " fill="#C12F2E" transform="translate(137,21)"/>
<path d="M0 0 C1.9645126 1.9645126 1.36454474 5.67592851 1.5 8.375 C1.75276441 13.76355137 1.75276441 13.76355137 3 19 C-0.96 19.33 -4.92 19.66 -9 20 C-11.125 7.25 -11.125 7.25 -9 3 C-10.98 3 -12.96 3 -15 3 C-9.87951049 0.25688062 -5.84363586 -0.22051456 0 0 Z " fill="#E45176" transform="translate(122,110)"/>
<path d="M0 0 C1.22142857 3.50142855 0.75961766 5.63787234 -0.375 9.125 C-0.65085937 9.99382813 -0.92671875 10.86265625 -1.2109375 11.7578125 C-2 14 -2 14 -3 16 C-4.32 16 -5.64 16 -7 16 C-7.25910156 16.73476563 -7.51820313 17.46953125 -7.78515625 18.2265625 C-11.60549196 26.94822924 -19.78044297 32.72440909 -28 37 C-31.86185251 38.44819469 -34.86829735 39.24304133 -39 39 C-39.33 39.66 -39.66 40.32 -40 41 C-47.09629025 41.31461385 -52.68284595 41.44572039 -59 38 C-59 37.34 -59 36.68 -59 36 C-58.154375 36.0721875 -57.30875 36.144375 -56.4375 36.21875 C-54.08564284 36.41117468 -51.73266405 36.59023104 -49.37890625 36.7578125 C-47.50954674 36.89180127 -45.64047124 37.03917537 -43.77734375 37.2421875 C-37.26332732 37.71241374 -31.74062008 34.68915443 -26 32 C-25.31808594 31.69320312 -24.63617188 31.38640625 -23.93359375 31.0703125 C-20.87187584 29.69123107 -20.87187584 29.69123107 -19 27 C-18.34 27 -17.68 27 -17 27 C-17 26.34 -17 25.68 -17 25 C-16.26265625 24.27941406 -15.5253125 23.55882813 -14.765625 22.81640625 C-11.73627753 19.73143517 -9.82019467 16.69171841 -7.75 12.9375 C-7.2240625 12.02000977 -7.2240625 12.02000977 -6.6875 11.08398438 C-5.31920647 8.65000069 -4.09961373 6.42051224 -3.453125 3.69140625 C-3 2 -3 2 0 0 Z " fill="#CD3C3C" transform="translate(327,33)"/>
<path d="M0 0 C2.38329855 3.36465678 2.18106384 6.19725032 1.51953125 10.09375 C0.6641631 13.23224368 -0.17204039 14.34460901 -3 16 C-6.394692 16.48416099 -9.62164765 16.62603858 -13 16 C-14.80859375 14.47265625 -14.80859375 14.47265625 -16 13 C-14.26519601 7.94015504 -11.87671666 4.39550726 -7.5625 1.1875 C-4.79485283 -0.0950682 -3.01173788 -0.25814896 0 0 Z " fill="#EE9DB9" transform="translate(113,22)"/>
<path d="M0 0 C-0.01160156 0.88042969 -0.02320312 1.76085937 -0.03515625 2.66796875 C-0.04417969 3.82941406 -0.05320312 4.99085937 -0.0625 6.1875 C-0.07410156 7.33605469 -0.08570312 8.48460938 -0.09765625 9.66796875 C-0.01192832 12.59300586 0.32150977 15.16316291 1 18 C-3.75 21 -3.75 21 -6 21 C-6 21.66 -6 22.32 -6 23 C-7.98 23.99 -7.98 23.99 -10 25 C-10 22.50104795 -9.9151488 20.04464644 -9.78125 17.55078125 C-9.73613281 16.70322266 -9.69101563 15.85566406 -9.64453125 14.98242188 C-9.59683594 14.10134766 -9.54914063 13.22027344 -9.5 12.3125 C-9.42845703 10.97348633 -9.42845703 10.97348633 -9.35546875 9.60742188 C-9.23768731 7.40490896 -9.11917063 5.20243811 -9 3 C-10.32 2.67 -11.64 2.34 -13 2 C-8.49646738 0.24252386 -4.82360189 -0.19294408 0 0 Z " fill="#E76789" transform="translate(113,113)"/>
<path d="M0 0 C0.75 1.625 0.75 1.625 1 4 C-0.22727426 6.30113924 -1.37099406 8.00636192 -3 10 C-3.4640625 10.59425781 -3.928125 11.18851563 -4.40625 11.80078125 C-9.99657884 18.19951549 -17.05134941 20.49538673 -25.37109375 21.34375 C-31.17375512 21.51093352 -31.17375512 21.51093352 -34 21 C-36.29013653 17.5647952 -36.17842973 16.014669 -36 12 C-36.66 11.67 -37.32 11.34 -38 11 C-37.67 10.01 -37.34 9.02 -37 8 C-36.34 8 -35.68 8 -35 8 C-34.79375 8.78375 -34.5875 9.5675 -34.375 10.375 C-33.21692848 13.19991149 -33.21692848 13.19991149 -30.4375 14.3125 C-23.58394759 15.68321048 -17.60627008 15.47099211 -11 13 C-8.09011579 10.51667612 -8.09011579 10.51667612 -5.625 7.5 C-4.77164063 6.5203125 -3.91828125 5.540625 -3.0390625 4.53125 C-1.00847748 2.19431434 -1.00847748 2.19431434 0 0 Z " fill="#DF5A5B" transform="translate(128,34)"/>
<path d="M0 0 C2.3828125 0.03515625 2.3828125 0.03515625 5 1 C6.6171875 3.87109375 6.6171875 3.87109375 7.875 7.4375 C8.30554688 8.61183594 8.73609375 9.78617188 9.1796875 10.99609375 C10 14 10 14 9 16 C8.01 16 7.02 16 6 16 C1.26154245 21.07691881 -0.07085544 23.96725763 0.03125 30.859375 C-0.01418927 33.97196519 -0.4886529 36.93191742 -1 40 C-1.33 40 -1.66 40 -2 40 C-2.11554004 30.32031241 -1.97942451 20.67233207 -1.5625 11 C-1.52326416 10.02659668 -1.48402832 9.05319336 -1.44360352 8.05029297 C-1.40162842 7.14682129 -1.35965332 6.24334961 -1.31640625 5.3125 C-1.26141968 4.10013672 -1.26141968 4.10013672 -1.20532227 2.86328125 C-1 1 -1 1 0 0 Z " fill="#DB293A" transform="translate(131,199)"/>
<path d="M0 0 C1.5625 2.625 1.5625 2.625 2 5 C2.66 5 3.32 5 4 5 C4.86060251 15.7479691 4.86060251 15.7479691 1.75 19.5625 C-1.26890197 22.23834493 -3.31574492 23.84157997 -7.3671875 24.22265625 C-12.0843192 23.92140641 -15.26752078 23.43887119 -18.625 19.9375 C-21.6020855 15.85344187 -21.55828763 12.94483333 -21 8 C-20.95875 7.0925 -20.9175 6.185 -20.875 5.25 C-19.51893979 1.76298803 -17.2205067 0.73411899 -14 -1 C-9.4072833 -2.7377847 -4.4662798 -1.85057012 0 0 Z M-18 5 C-19.17664871 8.52994613 -19.19850603 11.29455413 -19 15 C-17.27773504 18.24849977 -17.27773504 18.24849977 -14 19 C-13.566875 19.515625 -13.13375 20.03125 -12.6875 20.5625 C-11.00133012 22.24406668 -11.00133012 22.24406668 -8.1875 22.5 C-3.77106253 21.80722549 -2.18033966 20.10637827 1 17 C2.77698099 13.44603801 2.48978436 9.46935308 1.25 5.75 C-0.37547789 3.47433096 -1.49727807 2.31722207 -4 1 C-10.06791556 0.31491276 -13.19644961 0.89940821 -18 5 Z " fill="#EF9EBD" transform="translate(291,19)"/>
<path d="M0 0 C2.375 0.9375 2.375 0.9375 5.375 2.9375 C5.70919015 5.94521135 5.90270924 8.03806383 5.375 10.9375 C3.18746717 13.6298481 1.79076045 13.87686827 -1.625 14.375 C-4.625 13.9375 -4.625 13.9375 -7.0625 12.25 C-8.625 9.9375 -8.625 9.9375 -8.6875 7.5 C-6.98100168 3.38432758 -4.75970402 -0.11332629 0 0 Z " fill="#F5D3E2" transform="translate(283.625,23.0625)"/>
<path d="M0 0 C0.33 0.99 0.66 1.98 1 3 C-3.50686771 11.39546476 -12.01124176 18.02349192 -21 21 C-23.8125 20.625 -23.8125 20.625 -26 20 C-24.37660195 18.29115995 -22.70680947 16.62553283 -21 15 C-20.34 15 -19.68 15 -19 15 C-19 14.34 -19 13.68 -19 13 C-17.4221875 12.1646875 -17.4221875 12.1646875 -15.8125 11.3125 C-13.13866226 9.80611254 -11.57782296 8.56777113 -9.375 6.3125 C-6.81676541 3.82158737 -5.49558616 3.29962167 -2 3 C-2 2.34 -2 1.68 -2 1 C-1.34 0.67 -0.68 0.34 0 0 Z " fill="#651B18" transform="translate(343,86)"/>
<path d="M0 0 C5.54425612 0.48210923 5.54425612 0.48210923 7.375 2.5625 C8.27817334 6.08487604 8.0577477 9.36189486 8 13 C8.33 13.99 8.66 14.98 9 16 C8.07175817 18.3627974 7.06902939 20.69747517 6 23 C5.67 23.99 5.34 24.98 5 26 C4.34 26 3.68 26 3 26 C2.7525 26.5775 2.505 27.155 2.25 27.75 C-1.06147454 33.71065417 -6.7674281 36.65678345 -13 39 C-15.81640625 39.140625 -15.81640625 39.140625 -18 39 C-18 38.01 -18 37.02 -18 36 C-16.83984375 35.70609375 -16.83984375 35.70609375 -15.65625 35.40625 C-7.19838586 32.97775436 -1.72419683 29.59854589 3.1875 22.21484375 C4.37603483 18.97494351 4.34090626 16.00255832 4.375 12.5625 C4.40335938 11.26441406 4.43171875 9.96632813 4.4609375 8.62890625 C3.94008372 4.52828625 2.84554143 2.91864823 0 0 Z " fill="#CF544F" transform="translate(124,18)"/>
<path d="M0 0 C2.20023023 3.94366526 3.14592613 7.56992393 2.6875 12.0625 C2.460625 12.701875 2.23375 13.34125 2 14 C0.68 14.33 -0.64 14.66 -2 15 C-1.96519531 14.24074219 -1.93039063 13.48148438 -1.89453125 12.69921875 C-1.85392578 11.20841797 -1.85392578 11.20841797 -1.8125 9.6875 C-1.77769531 8.70136719 -1.74289063 7.71523438 -1.70703125 6.69921875 C-1.78011458 4.02308204 -1.78011458 4.02308204 -3.19921875 2.26953125 C-8.67371091 -1.58992635 -14.52393472 -1.88192077 -21 -1 C-23.7964308 0.07228657 -26.30628871 1.3271223 -28.90625 2.80859375 C-31 4 -31 4 -34 5 C-35.06441643 6.82033952 -35.06441643 6.82033952 -36 9 C-36.95554163 10.53578696 -37.93593193 12.05632511 -38.9375 13.5625 C-39.44152344 14.32691406 -39.94554688 15.09132813 -40.46484375 15.87890625 C-41.85172947 17.79513767 -43.27564024 19.38888178 -45 21 C-43.87956979 12.9415212 -38.00048768 6.12664461 -31.75390625 1.1796875 C-22.63520029 -4.95360693 -9.41771835 -6.15034668 0 0 Z " fill="#D13331" transform="translate(137,20)"/>
<path d="M0 0 C2.97 0.495 2.97 0.495 6 1 C7.97643376 6.92930127 7.62108241 13.38339483 5 19 C2.5 21.875 2.5 21.875 0 24 C-0.66 24 -1.32 24 -2 24 C-2 24.66 -2 25.32 -2 26 C-6.17568131 28.78378754 -10.01736386 29.21280773 -15 29 C-18.00057623 27.97412081 -20.26945479 26.66866652 -23 25 C-23 24.34 -23 23.68 -23 23 C-21.948125 23.309375 -20.89625 23.61875 -19.8125 23.9375 C-18.554375 24.288125 -17.29625 24.63875 -16 25 C-15.154375 25.2475 -14.30875 25.495 -13.4375 25.75 C-9.93688079 26.10903787 -8.17443368 25.58721684 -5 24 C-0.20463534 19.43111046 2.81203809 15.91340954 3.25 9.125 C3.22208134 5.34202195 2.30244309 3.06992412 0 0 Z " fill="#E67283" transform="translate(117,19)"/>
<path d="M0 0 C0.66 0 1.32 0 2 0 C1.75 2.875 1.75 2.875 1 6 C-0.9375 7.0625 -0.9375 7.0625 -3 8 C-3.29003906 8.77214844 -3.58007812 9.54429688 -3.87890625 10.33984375 C-7.31738661 18.49874664 -18.55245127 22.74972169 -26.26953125 25.9375 C-29.47306877 27.17374453 -32.66270806 28.20610676 -36 29 C-36.33 27.68 -36.66 26.36 -37 25 C-33.3427408 23.44802654 -29.71334093 22.384097 -25.875 21.375 C-14.95617128 18.02771201 -7.2410404 11.45969017 -1 2 C-0.67 1.34 -0.34 0.68 0 0 Z " fill="#C02F2F" transform="translate(320,49)"/>
<path d="M0 0 C1.27875 -0.061875 2.5575 -0.12375 3.875 -0.1875 C4.95394531 -0.23970703 4.95394531 -0.23970703 6.0546875 -0.29296875 C6.69664063 -0.19628906 7.33859375 -0.09960938 8 0 C10.58797786 3.88196679 10.18530856 7.07812671 10.0625 11.5625 C9.67622359 16.93948144 9.67622359 16.93948144 11 22 C8.125 21.3125 8.125 21.3125 5 20 C2.41464921 15.19367672 2.585552 10.20106037 2.34375 4.86328125 C2.28367324 1.87182041 2.28367324 1.87182041 0 0 Z " fill="#E13F64" transform="translate(120,109)"/>
<path d="M0 0 C0.99 0.33 1.98 0.66 3 1 C-2.89910233 13.97802512 -11.63887867 23.26639215 -25.1953125 28.35546875 C-30.72970369 29.6272996 -36.36207064 29.29245743 -42 29 C-42.33 28.34 -42.66 27.68 -43 27 C-41.85144531 26.93683594 -40.70289063 26.87367187 -39.51953125 26.80859375 C-27.58325051 25.94882061 -16.97226588 23.89055031 -8.5 14.5625 C-7.6316656 13.40034852 -6.79814827 12.21142892 -6 11 C-5.52949219 10.30261719 -5.05898438 9.60523438 -4.57421875 8.88671875 C-2.65719094 5.9328759 -1.11828899 3.35486696 0 0 Z " fill="#D84457" transform="translate(317,39)"/>
<path d="M0 0 C2.64 0 5.28 0 8 0 C8.19275481 4.34117362 8.37139593 8.68263202 8.53710938 13.02490234 C8.59542647 14.50129674 8.65756463 15.97754544 8.72363281 17.45361328 C8.81805803 19.57818061 8.89862513 21.70289674 8.9765625 23.828125 C9.02893066 25.1059082 9.08129883 26.38369141 9.13525391 27.70019531 C9.00728342 30.82230558 8.66891271 32.41403969 7 35 C3.17197998 28.23816936 3.65685069 21.67335195 3.8125 14.0625 C3.82603516 12.80630859 3.83957031 11.55011719 3.85351562 10.25585938 C3.88871409 7.17012721 3.93795695 4.08528976 4 1 C2.68 0.67 1.36 0.34 0 0 Z " fill="#DC2045" transform="translate(133,106)"/>
<path d="M0 0 C2.00720923 0.28674418 4.0085944 0.61866701 6 1 C5.67 1.99 5.34 2.98 5 4 C5.60585938 4.06960937 6.21171875 4.13921875 6.8359375 4.2109375 C9.85349095 5.31120067 10.28229626 6.75767782 11.625 9.625 C15.10440126 17.19403596 17.29613516 24.5960269 16 33 C15.01 33.66 14.02 34.32 13 35 C12.91363281 33.90042969 12.82726562 32.80085938 12.73828125 31.66796875 C11.7612738 20.85844647 10.47279396 10.67131345 2 3 C1.01 2.34 0.02 1.68 -1 1 C-0.67 0.67 -0.34 0.34 0 0 Z " fill="#DB2E31" transform="translate(312,0)"/>
<path d="M0 0 C0.99 0 1.98 0 3 0 C5.47192331 3.70788496 5.66788732 6.69945725 5 11 C2.96960499 14.84324769 0.8819364 17.95120023 -3 20 C-7.1202058 21.11896115 -10.01124388 21.41198172 -14 19.75 C-14.66 19.1725 -15.32 18.595 -16 18 C-16 17.01 -16 16.02 -16 15 C-15.01 15.33 -14.02 15.66 -13 16 C-11.33732126 16.14220279 -9.6684827 16.22020567 -8 16.25 C-6.700625 16.28867187 -6.700625 16.28867187 -5.375 16.328125 C-2.96468344 16.18409329 -2.96468344 16.18409329 -1.234375 14.7265625 C1.38599743 11.06135802 1.18743786 6.28528819 0.5625 2 C0.376875 1.34 0.19125 0.68 0 0 Z " fill="#EC85A5" transform="translate(113,21)"/>
<path d="M0 0 C1.32 0 2.64 0 4 0 C4.74984705 4.00091404 5.1195296 7.76749517 5.09765625 11.8359375 C5.09443359 12.89941406 5.09121094 13.96289062 5.08789062 15.05859375 C5.07951172 16.15300781 5.07113281 17.24742188 5.0625 18.375 C5.05798828 19.49261719 5.05347656 20.61023438 5.04882812 21.76171875 C5.03709244 24.50786804 5.02067363 27.25390586 5 30 C4.01 29.34 3.02 28.68 2 28 C2 26.68 2 25.36 2 24 C1.34 23.67 0.68 23.34 0 23 C0.66 23 1.32 23 2 23 C1.835 22.2575 1.67 21.515 1.5 20.75 C0.92331405 16.42485535 0.97279902 12.25844781 1.0625 7.90234375 C1.00293563 5.1363231 0.63113538 2.68725611 0 0 Z " fill="#DE284E" transform="translate(133,107)"/>
<path d="M0 0 C0.33 0 0.66 0 1 0 C0.979375 0.74765625 0.95875 1.4953125 0.9375 2.265625 C1.00208581 5.34959728 1.19235129 8.01857337 2 11 C4.38035421 13.25799956 6.87278684 14.12701124 10 15 C10.804375 15.2475 11.60875 15.495 12.4375 15.75 C19.63989015 16.45267221 26.00396104 15.85237911 33 14 C33 13.34 33 12.68 33 12 C33.99 12.33 34.98 12.66 36 13 C29.35457545 18.8636099 23.18068847 19.43774471 14.56640625 19.328125 C9.62093727 18.87312019 5.2746514 17.55175269 1 15 C-0.44207941 12.11584117 -0.09394887 9.58278472 -0.0625 6.375 C-0.05347656 5.18648437 -0.04445313 3.99796875 -0.03515625 2.7734375 C-0.02355469 1.85820313 -0.01195312 0.94296875 0 0 Z " fill="#E55F7E" transform="translate(264,40)"/>
<path d="M0 0 C-1.14954042 3.44862127 -1.82527151 3.84195809 -4.8125 5.6875 C-5.49957031 6.12449219 -6.18664062 6.56148438 -6.89453125 7.01171875 C-9 8 -9 8 -13 8 C-15.3125 5.6875 -15.3125 5.6875 -17 3 C-16.67 2.01 -16.34 1.02 -16 0 C-15.67 0.66 -15.34 1.32 -15 2 C-14.67 1.34 -14.34 0.68 -14 0 C-11.6015625 -0.44921875 -11.6015625 -0.44921875 -8.625 -0.6875 C-7.15933594 -0.81705078 -7.15933594 -0.81705078 -5.6640625 -0.94921875 C-3 -1 -3 -1 0 0 Z " fill="#C52A24" transform="translate(284,77)"/>
<path d="M0 0 C2 1 2 1 2.8125 3.0625 C3.14014036 8.19553233 1.28292006 12.42738832 -1.9375 16.375 C-6.14432436 19.68946768 -9.46558291 20.45156361 -14.75 20.3125 C-18.33869577 19.81407003 -20.34389601 18.4031417 -23 16 C-24.875 12.75 -24.875 12.75 -26 10 C-25.34 10 -24.68 10 -24 10 C-23.34 10.969375 -22.68 11.93875 -22 12.9375 C-19.63883645 15.88720283 -17.78859856 16.60390652 -14.0625 17.125 C-9.2586723 17.3397762 -6.63556286 16.27200658 -3 13 C-0.89172945 9.83759418 -0.66182535 8.49342531 -0.375 4.8125 C-0.30023438 3.91144531 -0.22546875 3.01039062 -0.1484375 2.08203125 C-0.09945313 1.39496094 -0.05046875 0.70789063 0 0 Z " fill="#EE90B1" transform="translate(295,25)"/>
<path d="M0 0 C0.33 0.99 0.66 1.98 1 3 C5.29 3.33 9.58 3.66 14 4 C14.33 5.65 14.66 7.3 15 9 C13.43904523 10.56095477 11.90999105 10.16961928 9.75 10.1875 C6.07542339 10.15819716 3.3150682 9.71100294 0 8 C0 5.36 0 2.72 0 0 Z " fill="#D23838" transform="translate(91,54)"/>
<path d="M0 0 C0.75 1.625 0.75 1.625 1 4 C-2.19159789 9.98424605 -6.95206402 15.62544064 -13.1875 18.4375 C-16 19 -16 19 -20 19 C-20 18.34 -20 17.68 -20 17 C-19.34 17 -18.68 17 -18 17 C-18 16.34 -18 15.68 -18 15 C-16.95585938 14.7834375 -15.91171875 14.566875 -14.8359375 14.34375 C-10.60439403 13.13291036 -8.4861477 10.84534193 -5.625 7.5 C-4.34496094 6.03046875 -4.34496094 6.03046875 -3.0390625 4.53125 C-1.00847748 2.19431434 -1.00847748 2.19431434 0 0 Z " fill="#D75F61" transform="translate(128,34)"/>
<path d="M0 0 C0.7425 0.2475 1.485 0.495 2.25 0.75 C3.10039667 3.13111068 3.32366994 4.46350578 2.6875 6.9375 C1.25 8.75 1.25 8.75 -1.6875 9.625 C-4.75 9.75 -4.75 9.75 -7.75 7.75 C-7.36094382 5.02660672 -6.68262433 3.66096786 -5 1.4375 C-2.75 -0.25 -2.75 -0.25 0 0 Z " fill="#F6D6E4" transform="translate(107.75,24.25)"/>
<path d="M0 0 C4.00632555 3.69899099 4.77058538 7.538073 5.26171875 12.80859375 C5.51485373 19.66069577 4.71638859 25.14575576 1 31 C0.48050781 31.51433594 -0.03898437 32.02867188 -0.57421875 32.55859375 C-2.26378619 34.05413731 -2.26378619 34.05413731 -3 37 C-3.99 37 -4.98 37 -6 37 C-4.91755848 34.56450657 -3.81416395 32.78419039 -2.0625 30.75 C2.34857477 24.86856697 3.47508055 19.86613196 2.4609375 12.609375 C1.71541893 8.38898173 0.91748532 4.18658349 0 0 Z " fill="#E6607F" transform="translate(306,15)"/>
<path d="M0 0 C0.66 0.33 1.32 0.66 2 1 C1.4740625 1.804375 1.4740625 1.804375 0.9375 2.625 C-0.28924249 5.73274763 0.27143569 7.79431703 1 11 C2.8871875 11.061875 2.8871875 11.061875 4.8125 11.125 C5.52019531 11.14820313 6.22789062 11.17140625 6.95703125 11.1953125 C9.31359719 11.13254462 9.31359719 11.13254462 12 9 C12.72965366 6.43717258 12.72965366 6.43717258 13 4 C15 7 15 7 14.875 9 C13.66522216 11.76520649 12.70285607 12.61391997 10 14 C5.70996465 14.56220221 2.69726083 14.46484056 -1 12 C-2.52410284 9.18040975 -3.04844263 7.52075831 -2.75 4.3125 C-2 2 -2 2 0 0 Z " fill="#F4BED5" transform="translate(276,25)"/>
<path d="M0 0 C1.89213369 2.38573379 3.02391783 4.07175348 4 7 C2.14919051 11.11290997 0.0303138 13.03651379 -4 15 C-4.66 15 -5.32 15 -6 15 C-4.40109514 9.80355921 -2.25861997 4.93387858 0 0 Z " fill="#B4221C" transform="translate(145,30)"/>
<path d="M0 0 C2.875 0.25 2.875 0.25 6 1 C8.0619483 4.00785858 8.24638622 6.5382939 8.1875 10.125 C8.17783203 11.42824219 8.17783203 11.42824219 8.16796875 12.7578125 C8 15 8 15 7 17 C6.01 16.67 5.02 16.34 4 16 C4.04640625 15.26394531 4.0928125 14.52789062 4.140625 13.76953125 C4.46222622 7.46875678 4.46222622 7.46875678 2 1.8125 C1.34 1.214375 0.68 0.61625 0 0 Z " fill="#DF5854" transform="translate(124,18)"/>
<path d="M0 0 C0.66 0.33 1.32 0.66 2 1 C1.67 5.95 1.34 10.9 1 16 C2.65 16.33 4.3 16.66 6 17 C8.3125 18.0625 8.3125 18.0625 10 19 C10 19.66 10 20.32 10 21 C9.2575 20.814375 8.515 20.62875 7.75 20.4375 C5.00822361 20.0013083 3.60701799 20.24797558 1 21 C-1.07726572 13.66847392 -0.94351599 7.53537771 0 0 Z " fill="#D22A26" transform="translate(90,46)"/>
<path d="M0 0 C4.875 0.875 4.875 0.875 6 2 C6.58690745 9.27765237 6.58690745 9.27765237 4.375 12 C1.32806078 13.28292178 -0.72032701 13.40995912 -4 13 C-6.375 11.5 -6.375 11.5 -8 10 C-7.67 9.01 -7.34 8.02 -7 7 C-6.46375 7.515625 -5.9275 8.03125 -5.375 8.5625 C-2.99503501 10.32605545 -2.99503501 10.32605545 0.25 9.6875 C1.61125 9.3471875 1.61125 9.3471875 3 9 C3.93423645 5.98968256 4.04449911 5.13349732 3 2 C2.01 1.34 1.02 0.68 0 0 Z " fill="#F2B5CE" transform="translate(106,23)"/>
<path d="M0 0 C1.22142857 3.50142855 0.75961766 5.63787234 -0.375 9.125 C-0.65085937 9.99382813 -0.92671875 10.86265625 -1.2109375 11.7578125 C-2 14 -2 14 -3 16 C-3.99 16 -4.98 16 -6 16 C-5.68872484 14.41642541 -5.37592711 12.83315007 -5.0625 11.25 C-4.80146484 9.92742188 -4.80146484 9.92742188 -4.53515625 8.578125 C-4.35855469 7.72734375 -4.18195313 6.8765625 -4 6 C-3.87496094 5.27296875 -3.74992187 4.5459375 -3.62109375 3.796875 C-3 2 -3 2 0 0 Z " fill="#CE3433" transform="translate(327,33)"/>
<path d="M0 0 C2.0839403 0.11443603 4.16716493 0.24195547 6.25 0.375 C7.41015625 0.44460937 8.5703125 0.51421875 9.765625 0.5859375 C12.70694334 0.96248308 14.49949011 1.4774123 17 3 C12.35374905 5.54794407 8.02168145 5.16608333 3 4 C2.01 3.34 1.02 2.68 0 2 C0 1.34 0 0.68 0 0 Z " fill="#DC353D" transform="translate(268,69)"/>
<path d="M0 0 C0.99 0.33 1.98 0.66 3 1 C-0.75 4 -0.75 4 -3 4 C-3.26941406 4.56589844 -3.53882812 5.13179687 -3.81640625 5.71484375 C-5.05704944 8.11014497 -6.44405847 10.31663755 -7.9375 12.5625 C-8.44152344 13.32691406 -8.94554688 14.09132813 -9.46484375 14.87890625 C-10.85172947 16.79513767 -12.27564024 18.38888178 -14 20 C-13.00497131 12.76342773 -8.11163486 6.60975224 -2.75 1.8125 C-1.8425 1.214375 -0.935 0.61625 0 0 Z " fill="#D33F3D" transform="translate(106,21)"/>
<path d="M0 0 C1.9375 0.625 1.9375 0.625 4 2 C5.52260822 6.80207209 5.27681685 12.14047319 4 17 C1.9375 19.0625 1.9375 19.0625 0 20 C0.16242188 19.46375 0.32484375 18.9275 0.4921875 18.375 C1.0997828 15.53332354 1.13226278 12.90511293 1.125 10 C1.12757812 8.96875 1.13015625 7.9375 1.1328125 6.875 C1.01863671 4.40342991 0.71350656 2.3557042 0 0 Z " fill="#E26268" transform="translate(124,19)"/>
<path d="M0 0 C2.5 0.125 2.5 0.125 3.5 1.125 C3.625 3.625 3.625 3.625 3.5 6.125 C2.5 7.125 2.5 7.125 0 7.25 C-2.5 7.125 -2.5 7.125 -3.5 6.125 C-3.625 3.625 -3.625 3.625 -3.5 1.125 C-2.5 0.125 -2.5 0.125 0 0 Z " fill="#F4EDF1" transform="translate(282.5,26.875)"/>
<path d="M0 0 C0.99 0.66 1.98 1.32 3 2 C2.56826496 8.15222436 1.34594658 11.81917949 -2 17 C-3.44715727 13.12813552 -2.5441918 10.1767672 -1.5625 6.25 C-1.27503906 5.07953125 -0.98757812 3.9090625 -0.69140625 2.703125 C-0.46324219 1.81109375 -0.23507813 0.9190625 0 0 Z " fill="#BA2927" transform="translate(142,26)"/>
<path d="M0 0 C1.9375 0.5625 1.9375 0.5625 4 2 C4.92678615 5.57474656 5.40411569 7.9492992 4.0625 11.4375 C3.711875 11.953125 3.36125 12.46875 3 13 C2.34 13 1.68 13 1 13 C-0.10228696 8.59085217 -0.07654536 4.51617599 0 0 Z " fill="#DA4C46" transform="translate(131,20)"/>
<path d="M0 0 C2.79163712 2.40768703 3.89717557 4.76146616 5.1875 8.1875 C5.53167969 9.08855469 5.87585938 9.98960937 6.23046875 10.91796875 C6.48441406 11.60503906 6.73835938 12.29210937 7 13 C6.01 13 5.02 13 4 13 C3.32404685 11.58774074 2.65959941 10.16997095 2 8.75 C1.62875 7.96109375 1.2575 7.1721875 0.875 6.359375 C0 4 0 4 0 0 Z " fill="#C5AFAE" transform="translate(14,286)"/>
<path d="M0 0 C0.33 0 0.66 0 1 0 C1.29341888 5.67276511 1.00559652 8.99067246 -2 14 C-2.66 14 -3.32 14 -4 14 C-3.7834375 13.38511719 -3.566875 12.77023438 -3.34375 12.13671875 C-2.92609375 10.92435547 -2.92609375 10.92435547 -2.5 9.6875 C-2.2215625 8.88699219 -1.943125 8.08648437 -1.65625 7.26171875 C-0.86066893 4.91230578 -0.86066893 4.91230578 -1 2 C-0.67 1.34 -0.34 0.68 0 0 Z " fill="#C92927" transform="translate(328,33)"/>
<path d="M0 0 C0.66 0 1.32 0 2 0 C1.649375 0.639375 1.29875 1.27875 0.9375 1.9375 C-0.34990613 6.1430267 0.3091153 9.71464763 1 14 C-1.65283264 11.69714528 -1.97403239 11.28564367 -2.3125 7.5625 C-2.03296827 4.37583825 -1.69249046 2.64451634 0 0 Z " fill="#F0AFC9" transform="translate(274,23)"/>
<path d="M0 0 C3.94120709 0.56302958 6.7508723 1.6791945 10 4 C10 4.66 10 5.32 10 6 C6.40992874 4.66654496 3.20429093 3.1056769 0 1 C0 0.67 0 0.34 0 0 Z " fill="#E55F7E" transform="translate(291,4)"/>
<path d="M0 0 C3.35595828 0.59927826 5.37801226 1.84622436 8 4 C7.67 4.99 7.34 5.98 7 7 C5.83040013 6.02433888 4.66438823 5.044375 3.5 4.0625 C2.8503125 3.51722656 2.200625 2.97195312 1.53125 2.41015625 C1.0259375 1.94480469 0.520625 1.47945313 0 1 C0 0.67 0 0.34 0 0 Z " fill="#A89999" transform="translate(278,96)"/>
</svg>
